<?xml version="1.0" encoding="utf-8"?>
<!-- Generator: Adobe Illustrator 23.0.1, SVG Export Plug-In . SVG Version: 6.00 Build 0)  -->
<svg version="1.1" xmlns="http://www.w3.org/2000/svg" xmlns:xlink="http://www.w3.org/1999/xlink" x="0px" y="0px"
	 viewBox="0 0 800 600" style="enable-background:new 0 0 800 600;" xml:space="preserve">
<style type="text/css">
	.st0{fill:none;stroke:#000000;stroke-width:0.5;stroke-linecap:round;stroke-linejoin:round;}
	.st1{font-family:'Roboto-Regular';}
	.st2{font-size:14px;}
</style>
<g id="Malaysia">
	<path class="st0" d="M718.323,298.244l-2.053-0.021h-2.6h-1.715l-1.299-0.233l-0.245-0.213l-2-1.745l-0.147-0.461l0.282-0.498
		l0.675-0.472l0.773-0.368l0.589-0.177l0.699,0.042l1.362,0.448l0.681,0.111l0.414,0.189l0.359,0.431l0.503,0.801l0.356,0.352
		l0.325,0.201l0.371,0.092l0.515,0.023l1.748,0.567l0.166,0.374l0.003,0.006L718.323,298.244z M705.511,298.131l-0.332-0.302
		l-0.608-0.233l-1.04,0.071l-0.612-0.025l-1.289-0.2l-1.044-0.291l-0.888-0.547l-2.123-2.246l-3.054-1.568l-1.391-0.979l-0.304-0.39
		l-0.218-0.355l-0.288-0.259l-0.545-0.1l-0.464,0.115l-0.604,0.552l-0.366,0.199l-6.938,0.136l-2.123-0.582l-1.554,0.002
		l-2.961,0.561l-1.445-0.321l-1.383-0.979l-0.67-0.088l-1.192,1.016l-0.713,0.209l-0.729,0.02l-0.99-0.386l-0.954,0.489
		l-0.503-0.033l-1.644-2.395l-0.417-0.054l-0.257,0.478l-0.795,0.791l-0.296,0.544l0.019,0.388l0.187,0.276l0.082,0.243l-0.308,0.3
		l-0.662,0.174l-0.425-0.168l-0.405-0.019l-0.927,0.961l-0.393,0.12l-0.394-0.051l-0.37-0.177l-0.966-1.626l-0.136-0.48
		l-0.136-0.191l-0.261-0.093l-0.265,0.037l-0.253-0.012l-1.013-0.988l-0.962,0.189l-1.052,0.538l-1.071,0.304l-0.518-0.066
		l-1.695-0.456l-0.876-0.049l-0.39-0.069l-0.405-0.222l-0.312,0.819l-0.284,0.458l-0.397,0.325l-0.686,0.417l-1.811,1.805
		l-0.471,0.26l-0.627-0.221l-0.393-0.462l-0.234-0.6l-0.148-0.628l-0.234-0.273l-0.467-0.259l-0.9-0.336l-1.589-0.105l-0.752-0.189
		l-0.354-0.55l-0.171-0.601l-0.331-0.31l-0.452,0.059l-0.495,0.495l-0.37,1.201l0.027,1.251l-0.167,1.131l-1.434,1.224l-0.152,0.485
		l-0.175,0.397l-0.522,0.13l-0.366-0.206l-0.261-0.324l-0.288-0.12l-1.613,1.489l-0.265,0.353l-0.257,0.245l-0.756,0.209
		l-0.339,0.36l-0.294,0.875l-0.002-0.004l-0.187-0.304l-0.158-0.479l-0.117-0.609l-0.035-0.903l0.076-0.531l0.164-0.439l1.134-1.486
		l0.152-0.32l0.271-0.812l0.07-0.405l-0.07-0.41l-0.216-0.479l-0.51-0.662l-0.382-0.341l-0.308-0.199l-0.292-0.1l-0.604-0.132
		l-0.304-0.1l-0.28-0.144l-0.228-0.294l-0.181-0.428l-0.066-0.662l0.025-0.898l-0.029-0.297l-0.123-0.34l-0.567-0.942l-0.21-0.548
		l-0.117-2.896l0.041-0.305l0.064-0.2l1.227-2.145l0.134-0.39l0.07-0.387l0.111-1.318l0.148-0.712l0.117-0.341l0.179-0.308
		l0.773-0.746l0.205-0.34l0.169-0.405l0.586-1.908l0.016-0.393l-0.035-0.411l-0.818-3.572l-0.234-0.409l-0.286-0.246l-0.497-0.103
		l-0.682,0.012l-1.091,0.176l-1.819,0.114l-3.477-0.37l-0.008-0.001l0.988-0.869l1.206-1.541l0.469-0.243l0.764-0.129l0.727-0.331
		l0.598-0.423l0.353-0.431l0.227-0.604l0.258-1.535l0.055-1.375l0.083-0.364l0.405-0.775l0.313-0.323l0.331-0.223l0.147-0.285
		l-0.248-0.507l-1.426,0.668l-1.396-0.037l-1.282-0.536l-3.359-2.915l-0.095-0.353l0.086-0.323l-0.024-0.24l-0.399-0.092
		l-0.166,0.085l-0.736,0.642l-0.212-0.462l0.113-0.539l0.227-0.584l0.248-1.237l0.267-0.502l0.267-0.394l0.12-0.288l0.442-0.402
		l1.963-1.152l0.448-0.77l0.423-0.568l2.662-1.912l1.322-2.877l0.739-0.744l0.528,0.869l-1.301,2.438l0.773,1.089l0.196-0.393
		l0.166-1.029l0.178-0.408l1.288,1.114l0.782,0.351l3.328,0.236l1.089-0.066l0.997-0.32l1.166-1.009l0.969-1.49l0.749-1.663
		l0.463-1.527l0.285-1.662l0.221-0.732l0.405-0.615l0.552-0.449l3.386-1.898l0.589-0.657l0.248-0.866l0.11-1.749l0.23-0.734
		l2.31-3.757l0.534-1.641l-0.589-1.117l-0.847,0.296l-0.294-0.494l0.377-0.71l1.147-0.364l0.666-0.426l1.782-2.68l0.804-0.73
		l0.479-0.238l0.635-0.092l0.445,0.153l0.564,0.264l0.472,0.088l0.202-0.375l-0.156-1.262l-0.46-0.105l-0.721,0.349l-0.954,0.114
		v-0.238l1.028-0.54l0.592-0.648l0.156-0.13l0.276-0.046l0.754,0.046l0.356-0.228l0.077-0.127l-0.003-0.213l0.325-1.21l0.101-0.241
		l0.193-0.313l0.35-0.407l3.343-2.551l0.568-0.571l0.681-0.526l0.709-0.323l0.561-0.414l0.224-0.81l0.025-0.685l0.129-0.724
		l0.282-0.571l0.5-0.232l0.662-0.513l2.337-3.139l0.567-0.542l0.393-0.528l0.227-0.67l0.074-0.967l-0.061-1.286l0.061-0.388
		l0.156-0.3l0.46-0.63l0.156-0.389l-0.065-1.455l0.129-0.638l1.067-0.505l0.313-0.593l0.359-1.497l0.046-0.834l0.089-0.329
		l0.27-0.135l0.156-0.131l0.405-0.609l0.206-0.456l0.325-0.315l0.408-0.241l0.432-0.063l0.12,0.152l0.39,0.862l1.552,1.015
		l0.23,0.425l0.515,2.732l-0.699-0.403l-0.405-0.125l-0.184,0.153l-0.242,1.186l-0.015,0.227l0.432,0.38l0.598,0.207l0.537,0.337
		l0.236,0.785l-0.15,1.494l-0.405,0.996l-1.248,1.81l-0.681,1.322l-0.537,1.64l0.206,1.325l1.528,0.375l0.791-0.391l0.586-0.702
		l0.454-0.676l0.377-0.301l0.515-0.219l1.675-1.62l1.23-0.885l0.242-0.466l0.147-1.313l0.184-0.161l0.248-0.074l0.264-0.21
		l0.515-1.035l1.365-1.398l0.203-0.561l-0.23-0.785l-0.847-1.662l0.046-0.803l0.304-0.436l0.301-0.045l0.35,0.13l0.463,0.091
		l0.322-0.127l0.248-0.272l0.101-0.277l-0.147-0.125l-0.285-0.179l-0.074-0.4l0.074-0.431l0.147-0.264l0.396-0.079l0.451,0.117
		l0.426,0.164l0.291,0.057l0.331-0.186l0.57-0.496l0.242,0.023l0.294,0.167l0.957,0.413l0.31,0.079l0.126,0.15l1.951,1.19
		l0.215,0.179l0.153,0.297l0.031,0.651l-0.239,1.824l-0.166,0.377l-0.521,0.281l-0.166,0.66l0.074,0.78l0.215,0.636l1.356,1.785
		l0.212,0.686l0.101,2.357l0.156,0.613l0.432,0.801l0.491,0.284l1.521-0.049l0.583,0.188l0.506,0.443l0.819,0.945l0.939,0.872
		l0.656,0.475l0.613,0.208l0.617-0.148l0.414-0.417l0.902-1.508l0.589-0.713l0.313-0.001l0.123,0.582l0.025,1.039l0.156,0.028
		l0.874,0.88l-0.147-0.051l-0.098,0.171l-0.04,0.245l0.028,0.176l0.138,0.068l0.482,0.127l0.153,0.065l0.564,0.519l0.365,0.185
		l0.488,0.071l0.528-0.265l0.402-0.071l0.368,0.196l0.905,1.047l0.402,0.602l0.377,0.824h0.258l0.138-0.329l0.184-0.142l0.212,0.031
		l0.233,0.181l0.172,0.267l0.046,0.284l-0.003,0.338l0.049,0.431l0.123,0.352l0.347,0.66l0.071,0.259l-0.144,0.353l-0.261,0.341
		l-0.172,0.349l0.386,1.012l-0.35,2.51l-0.245,0.563l-0.564,0.066l-1.252-0.231l-0.699,0.236l-0.681,0.46l-1.092,0.978l-0.334,0.645
		l0.199,0.606l0.81,0.961l0.611,1.478l0.549,0.236l0.123,0.214l0.055,0.373l0.098,0.287l0.012,0.315l-0.166,0.46l-0.313,0.321
		l-0.35,0.114l-0.282,0.165l-0.104,0.458l0.248,0.623l0.537,0.139l0.534,0.24l0.245,0.927l-0.221,0.618l-0.54,0.529l-1.319,0.805
		l-4.779,1.62l-0.908,0.99l0.669-0.122l2.16-0.934l0.963-0.245l2.669-0.014l2.521-0.316l1.868,0.207l0.666-0.071l0.227-0.432
		l-0.325-0.942l0.399-0.241l0.393,0.023l0.445,0.134l0.543,0.083l0.669-0.046l1.788-0.347l0.371-0.253l0.233-0.478l0.521-0.475
		l1.024-0.728l1.227-1.595l0.669-0.342l0.153-0.187l0.27-0.109l0.537,0.137l1.285,1.319l0.086,0.375l-0.028,0.416l0.046,0.341
		l0.65,0.339l0.098,0.458l-0.058,0.777l0.193,0.879l1.577,2.129l0.208,0.191l0.025,0.244l-1.101,1.506l-0.561,0.333l-0.837,0.242
		l-0.883,0.046l-0.699-0.256l-0.635,0.21l-2.337-0.21l-0.635,0.208l-0.405,0.461l-0.074,0.462l0.35,0.207l0.163,0.284l1.129,2.941
		l0.313,0.262l0.172,0.035l0.215-0.088l0.457-0.096l0.58-0.185l1.5-0.695l0.635-0.153l0.304,0.065l0.258,0.327l0.35,0.126
		l0.291-0.065l0.362-0.157l0.393-0.079l0.371,0.171l0.386,0.55l0.276,0.148l0.365-0.168l0.295-0.419l0.003-0.339l-0.169-0.396
		l0.252-0.666l0.166-0.26l0.239-0.271l0.101-0.311l-0.297-0.697l0.055-0.402l0.583-0.445l1.684-0.167l1.555-0.694l0.81,0.176
		l1.963,1.037l0.184,0.06l0.19-0.157l0.414-0.469l0.322-0.114l0.38,0.148l0.347,0.225l0.236,0.114l0.748,0.182l3.859,2.249
		l1.322,1.087l0.518,0.314l0.656,0.305l0.555,0.365l0.212,0.486l-0.138,0.374l-0.276,0.217l-0.261,0.139l-0.123,0.139l-0.368,2.15
		l-0.252,0.815l-0.12,0.801l0.248,0.792h0.258l0.374-0.962l0.233-0.43l0.285-0.324l0.175-0.381l-0.061-1.011l0.153-0.407
		l0.982-0.678l0.828,0.008l0.724,0.507l1.773,2.167l0.727,0.681l0.653,0.29l0.994,0.183l0.745,0.501l0.488,0.749l0.239,0.918
		l0.282-0.21l0.159-0.188l0.064-0.253l-0.015-0.385l1.779,1.35l0.693,0.2l0.785,0.361l0.638,0.795l0.141,0.801l-0.669,0.371
		l0.411,0.337l0.589,0.21l0.614,0.006l0.448-0.271l0.107-0.513l-0.221-0.396l-0.095-0.33l0.491-0.311l0.92,0.025l1.785,0.943
		l1.132,0.042l2.945-1.405l0.96-0.143l0.586,0.28l0.555,0.584l0.896,1.225l0.816,0.809l0.35,0.494l0.144,0.625l-0.083,0.821
		l-0.356,1.255l-0.077,0.647l0.184,1.759l-0.083,0.952l-0.865,0.747l-1.831,1.994l-1.494,0.85l-6.889,2.507l-7.03,2.04l-1.353,0.831
		l-0.883,0.383l-0.935,0.277l-0.791,0.086l-0.589-0.139l-1.184-0.505l-1.08-0.168l-0.785-0.231l-0.478,0.009l-0.454,0.159
		l-1.11,0.874l-0.819,0.502l-0.365-0.015l-0.491-0.346l-0.212-0.279l-0.681-1.164l-1.291-1.515l-1.184-0.607l-0.782-0.237
		l-0.353,0.197l-0.365-0.111l-0.807,0.517l-1.166,0.992l-0.307-0.214l-0.19,0.139l-0.074,0.377l0.058,0.496l-1.454-0.351
		l-1.347,0.807l-2.117,2.384l-0.638,0.473l-0.279,0.302l-0.11,0.4l0.052,0.459l0.153,0.16l0.255,0.082l0.966,0.63l0.248,0.22
		l0.221,0.337l0.42,1.094l0.905,1.385l1.034,1.228l1.175,1.085l1.307,0.954l0.488,0.455l0.313,0.239l0.344,0.102l0.347,0.009
		l0.791,0.106l0.291,0.12l0.178,0.226l0.301,0.692l0.169,0.266l0.239,0.206l0.267,0.165l0.65,0.272l0.092-0.642l0.518-0.138
		l0.672,0.186l0.54,0.335l0.405,0.512l0.077,0.472l-0.193,0.468l-0.417,0.486l-0.147,0.48l0.331,0.42l0.46,0.362l0.233,0.311
		l0.313,0.223l0.693-0.349l1.08-0.8l0.423,0.209l0.914,0.129l0.46,0.175l-0.212,0.517l0.439,0.705l1.494,1.62l0.018,0.275
		l-0.322,0.406l-0.414,0.252l-0.328-0.052l-0.374-0.182l-0.583-0.137l0.199,0.637l-0.175,0.565l-0.377,0.483l-0.396,0.378
		l-0.58,0.418l-0.531,0.132l-1.485-0.057l-0.635,0.075l-1.215,0.349l-0.721,0.115l-1.632,0.032l-0.868-0.158l-0.589-0.414
		l-0.494,0.66l-0.288,0.191l-3.411,0.958l-3.061,0.281l-0.896,0.286l-4.994,2.533l-0.825,0.018l-2.322-0.678l-0.626-0.097
		l-0.46-0.201l-1.454-1.347l-0.531-0.311l-0.316-0.145l-0.328-0.058l-0.138-0.163l-0.258-0.709l-0.141-0.161l-0.509-0.051
		l-1.178-0.466l-0.945-0.172l-0.337-0.109l-0.828-0.577l-0.429-0.674l-0.344-0.729l-0.598-0.717l-0.57,0.068l-0.825,0.534
		l-0.736,0.645l-0.331,0.417l0.144,0.328l0.721,0.438l0.172,0.408v1.563l0.138,0.401l0.57,0.535l0.058,0.48l-0.172,0.432
		l-0.325,0.354l-0.785,0.529l-0.248,0.245l-0.187,0.328l-0.227,0.263l-0.117,0.315l0.141,0.197l0.663,0.643l0.258,0.311l-0.38-0.035
		l-0.325,0.046L705.511,298.131z M730.1,233.963l0.512,0.167l0.113,0.365l-0.199,0.362l-0.426,0.165l-0.239,0.037l-0.666,0.24
		l-0.236,0.02l-0.276-0.02l-0.353-0.097l-0.264-0.179l-0.064-0.26l0.23-0.352l0.417-0.287l0.457-0.129L730.1,233.963z
		 M749.2,285.573l0.85,0.242l0.423,0.534l-0.147,0.535l-0.868,0.24h-1.405l-0.534,0.522l-0.258,0.018l-0.212-0.123v-0.122
		l-0.046-0.789l-0.178-0.2l-0.454-0.372l-0.141-0.203l-0.129-0.411l0.135-0.103l0.393-0.006h0.098l0.546-0.006L749.2,285.573z
		 M741.059,279.637l0.509-0.637l0.969,0.02l1.067,0.382l0.822,0.471v0.282l-0.558,0.045l-0.356,0.251l-0.163,0.429l0.046,0.563
		l-0.727-0.668l-0.184-0.105l-0.193,0.175l-0.129,0.343l-0.166,0.248l-0.294-0.123l-0.58-0.446l-0.617-0.286l-0.589-0.149
		l-0.506-0.045l-0.147-0.066l-0.341-0.328l-0.178-0.12l-1.288-0.235l-2.573-0.796v-0.239h2.972l0.414-0.115l0.261-0.259l0.218-0.268
		l0.276-0.154l0.745,0.131l0.341,0.543l0.304,0.665L741.059,279.637z M701.803,199.411l0.948,1.186l0.635,1.181l-0.156,1.169
		l-1.426,1.152l-0.969,0.281l-1.156,0.031l-1.156-0.168l-0.96-0.324l-0.35-0.269l-0.132-0.324l0.095-0.334l0.34-0.278l0.399-0.13
		l1.911-0.085l0.598-0.154l0.442-0.349l0.166-0.63l-0.337-0.334l-1.346-0.071l-0.138-0.513l0.442-0.457l1.54-0.204L701.803,199.411z
		 M684.233,177.04l0.537,0.498l0.221,0.903l-0.089,0.921l-0.39,0.555l-0.696-0.654l-0.558,0.264l-0.199,0.716l0.405,0.686
		l-3.607,0.909l0.175,0.36l0.325,0.202l0.203,0.215l-0.187,0.413l-0.347,0.167l-0.534,0.043l-0.546-0.062l-0.396-0.148l1.822-3.395
		l0.537-0.247l1.267-0.303l0.515-0.229L684.233,177.04z M690.586,177.534l2.831-0.498l0.896,0.263l0.448,0.628l0.049,0.895
		l-0.368,2.921l-0.417,1.138l-0.577,0.714l-0.653-0.329l-0.709,0.283l-2.19,0.43l-0.469,0.207l-0.212,0.216l-1.006,0.47
		l-0.347,0.232l-0.258,0.436l-0.156,0.427l-0.209,0.383l-0.408,0.311l-0.279-0.918l-0.291-2.895l0.184-0.618l0.147-0.275
		l-0.04-1.685l0.135-0.352l0.209-0.189l0.595-0.204l0.371-0.209l0.905-0.919l0.844-0.589l0.469-0.198L690.586,177.534z"/>
	<path class="st0" d="M50.88,201.964l0.173,0.21l0.323,0.178l0.571,0.012v-0.075l0.571-0.358l0.343-0.031l0.436,0.041l0.401,0.142
		l0.257,0.278l1.399,4.258l0.427,0.719l0.738,0.651l1.088,0.526l-0.062,0.551v0.156l-0.029,0.303l-0.368,1.684l-0.105,0.147
		l-0.158,0.159l-0.89,0.604l-0.382,0.315l-4.162,4.722l-0.041,0.103l-0.055,0.171l-0.056,0.394l-0.138,0.479l-0.292,0.305
		l-0.006,0.006l-0.911-1.154l-0.819-1.63l-0.58-1.767l-0.239-1.627l-0.144-0.716l0.312-0.585l0.331-0.829l0.156-0.945l-0.016-0.331
		l-0.123-0.659l0.033-0.339l0.253-0.397l0.331-0.283l0.226-0.329l-0.076-0.538l-0.302-0.88l-0.041-0.647l0.251-1.538l0.049-0.858
		l0.105-0.432l0.243-0.315l0.538-0.173l0.343,0.208L50.88,201.964z M35.317,219.322l0.533-1.175l0.885-0.354l0.492-0.458
		l0.106,0.642l-0.281,0.318l-0.281,0.424l0.004,0.46l-0.064,0.247l0.021,0.615l0.242,0.649l-0.143,0.572l-0.357,0.536l-0.428,0.18
		l-0.606-0.534l-0.206-0.578l-0.352-0.11l-0.282-0.75L35.317,219.322z M39.626,214.677l0.386,0.591l0.136,0.342l0.068,0.31
		l-0.383,0.207l-0.543,0.156l-0.322,0.349l-0.477,0.296l-0.181,0.546l-0.613-0.386l-0.182-0.909l-0.726,0.022l-0.679,0.249
		l-0.586,0.723l-0.518,0.587l-0.617,0.005l-0.479,0.48l-0.463,0.213l-0.299,0.117l-0.5-1.842l0.252-0.661l-0.116-0.977l-0.612-0.205
		l-0.979-0.203l-0.684,0.051l-0.325-0.534l-0.153-0.664L30,211.964l0.913,0.34l0.728-0.319l1.229,0.044l0.569,0.386l1.298,0.157
		l0.568-0.114l0.613-0.501l0.454-0.682l0.364-0.023l0.575-0.007l-0.178-0.321l-0.064-0.287l0.349,0.046l0.341,0.152l0.294,0.829
		l0.285,0.536l0.445,0.377l0.779,0.356l-0.051,0.315l0.271,0.162l0.322,0.287l-0.163,0.46L39.626,214.677z"/>
	<path class="st0" d="M57.607,208.515l0.367,0.177l0.84,0.259l0.635,0.052l0.974-0.113l0.561,0.138l1.204,0.869l0.688,0.319
		l2.3,0.669l1.289,0.572l0.68,0.167l0.668-0.09l2.429-1.741l0.645-0.006l0.058,0.234l-0.012,0.846l0.101,0.317l0.317,0.237
		l0.351,0.05l0.388-0.006l0.429,0.063l0.869,0.507l0.351,0.726l0.107,1.803l0.086,0.436l0.167,0.415l0.45,0.769l0.072,0.314
		l-0.08,0.349l-0.119,0.321l-0.013,0.035l-0.07,0.338l0.023,1.095l0.091,0.318l0.318,0.561l0.164-0.02l0.206-0.256l0.464-0.151
		l0.503,0.067l1.57,0.393l0.709-0.183l0.99-1.062l0.721-0.151l1.214,0.995l0.625,0.204l1.73-0.374l0.479,0.167l0.249,0.491
		l0.103,0.772l-0.07,0.922l-0.345,0.322l-0.495,0.228l-0.507,0.634l-0.035,0.874l0.604,0.569l0.701,0.529l0.269,0.752l-0.199,1.484
		l-0.058,2.157l-0.265,1.238l-0.062,0.715l-0.288,0.694l-0.686,0.255l-0.795,0.159l-0.623,0.4l-1.547,3.146l-0.247,0.424
		l-0.092,0.443l0.072,0.432l0.197,0.309l-0.244-0.003l-0.144,0.018l-0.136,0.038l-0.094,0.088l-0.053,0.106l0.152,0.632l0.064,0.106
		l0.16,0.185l0.117,0.22l0.086,0.089l0.323,0.194l0.093,0.073l0.07,0.079l0.051,0.097l-0.021,0.22l-0.516,2.166l-0.07,0.138
		l-0.121,0.141l-0.464,0.315l-0.193,0.197l-0.271,0.373l-0.32,0.292l-0.076,0.109l-0.041,0.17l0.053,0.305l0.076,0.167l0.105,0.106
		l0.111,0.053l0.129,0.035l0.111,0.063l0.099,0.076l0.064,0.112l0.035,0.15v0.188l-0.082,0.656v0.32l-0.018,0.144l-0.134,0.479
		l-0.245,0.564l-0.234,0.37l-0.479,0.497l-0.253,0.12l-0.187,0.026l-0.175-0.158l-0.101-0.05l-0.144,0.064l-0.169,0.182
		l-0.281,0.443l-0.164,0.212l-0.199,0.511l-0.158,1.464l-0.023,0.314l0.018,0.317l-0.018,0.314l-0.253,1.093l-0.093,0.245
		l-0.121,0.229l-0.136,0.205l-0.487,0.55l-0.255,0.129l-0.397,0.147l-0.952,0.255l-1.293,0.179l-0.269,0.2l-0.358,0.69l-0.082,0.429
		l-0.035,0.115l-0.129,0.185l-0.193,0.182l-0.917,0.638l-0.123,0.129l-0.129,0.182l-0.28,0.61l-0.166,0.579l-0.035,0.085
		l-0.035,0.068l-0.14,0.208l-2.672,2.385l-0.169,0.323l-0.169,0.546l-0.064,0.106l-0.076,0.088l-0.561,0.47l-0.538,0.652
		l-0.094,0.076l-0.125,0.067l-0.164,0.044l-0.234,0.023l-0.292-0.068l-0.257-0.117l-0.386-0.274l-0.421-0.191l-0.136-0.038
		l-0.234-0.302l-0.286-1.028l1.165,0.205l0.45-0.015l0.129-0.041l0.111-0.065l0.105-0.094l0.099-0.152l0.029-0.161V260.8
		l-0.631-4.422l-0.66-7.78l0.07-2.271l0.07-0.33l0.175-0.452l-0.651-0.296l-0.596-0.1l-5.485-0.33l-0.013-0.001l-0.13-0.577
		l-0.258-3.221l0.347,0.148l0.442,0.102l0.43-0.025l0.325-0.225l0.055-0.373l-0.288-0.231l-0.362-0.166l-0.175-0.17l0.423-4.427
		l-1.003-7.645l-0.322-0.654l-0.552-0.725l-0.451-0.818l-0.672-1.703l-1.362-2.477l-0.457-1.512l-0.577-0.586l-1.23-0.863
		l-0.046-0.059l0.006-0.006l0.292-0.305l0.138-0.479l0.056-0.394l0.055-0.171l0.041-0.103l4.162-4.722l0.382-0.315l0.89-0.604
		l0.158-0.159l0.105-0.147l0.368-1.684l0.029-0.303v-0.156L57.607,208.515z"/>
	<path class="st0" d="M121.511,218.727l0.963,0.699l2.015,1.361l0.433,0.216l0.883-0.225l0.175-0.441l-0.322-0.302l-0.613,0.193
		l0.423-0.594l0.81,0.031l4.377,1.609l0.847,0.508l1.574,1.669l4.521,8.928l0.788,0.973l0.801,0.643l-0.086,0.061l-1.379,1.738
		l-2.891,2.704l-1.326,1.406l-0.187,0.487l0.512,2.095l0.101,0.25l0.105,0.377l0.018,0.214l-0.105,0.632l0.058,2.041l-0.047,0.127
		l-0.07,0.103l-0.304,0.2l-0.035,0.379l0.275,2.233l0.018,0.617l-0.07,0.352l-0.129,0.044l-0.029,0.133l0.07,0.217l0.608,0.754
		l0.838,0.688l0.152,0.185l0.07,0.347l-0.181,0.951l-0.438,0.934l-0.054,0.158l-0.109,0.864l-0.078,2.191l0.101,0.573l0.004,0.15
		l-0.012,0.15l-0.064,0.264l-0.234,0.632l0.023,0.153l0.082,0.15l0.263,0.129l0.505,0.12l0.105,0.059l0.187,0.154l0.117,0.053
		l0.15,0.023l0.14,0.006l0.154,0.035l0.134,0.088l0.175,0.155l0.292,0.144l0.101,0.07l0.526,0.602l0.183,0.135l0.156,0.097
		l0.123,0.053l0.105,0.059l0.134,0.108l0.362,0.409l0.298,0.22l0.076,0.079l-0.066,0.17l-0.173,0.217l-0.053,0.106l-0.029,0.132
		l-0.018,0.127l-0.064,0.109l-0.105,0.053l-0.275,0.067l-0.105,0.065l-0.07,0.1l0.006,0.208l0.45,1.835l-0.041,0.197l-0.076,0.129
		l-0.117,0.047l-0.111,0.062l-0.093,0.073l-0.076,0.089l-0.041,0.096l-0.006,0.074v0.029l0.006,0.021v0.029l0.017,0.179l0.064,0.302
		l0.351,1.063l0.092,0.611l-0.062,0.302l-0.058,0.734l0.07,0.179l0.158,0.158l0.409,0.176l0.181-0.009l0.128-0.068l0.07-0.1
		l0.09-0.076l0.117-0.032l0.133,0.012l0.136,0.032l0.935,0.422l1.878,1.333l0.134,0.053l0.275,0.07l0.123,0.123l0.088,0.214
		l0.051,0.531l0.066,0.303l0.195,0.287l0.129,0.129l0.105,0.155l0.339,0.816l0.039,0.284l-0.214,0.555l-0.744-0.029l-0.321-0.103
		l-0.38-0.309l-0.123-0.053l-0.146,0.004l-0.152,0.072l-0.169,0.209l-0.053,0.167l-0.012,0.164l0.006,0.147l-0.018,0.132
		l-0.041,0.129l-0.123,0.23l-0.055,0.117l-0.035,0.12l0.008,0.132l0.035,0.114l0.134,0.211l0.047,0.117l0.105,0.57l0.018,0.305
		l-0.029,0.138l-0.047,0.121l-0.099,0.088l-0.148,0.035l-0.497-0.1l-0.567-0.051l-0.164-0.056l-0.123-0.079l-0.07-0.088
		l-0.094-0.085l-0.099-0.076l-0.123-0.018l-0.146,0.038l-0.148,0.176l-0.152,0.262l-0.07,0.091l-0.086,0.082l-0.187,0.152
		l-0.084,0.088l-0.222,0.176l-0.271,0.17l-0.156,0.056l-0.193,0.006l-0.321-0.07l-0.187-0.064l-0.146-0.082l-0.364-0.296
		l-0.662-0.37l-0.162-0.176l-0.201-0.308l-0.086-0.079l-0.158-0.044l-0.21-0.015l-0.341,0.018l-0.203-0.023l-0.171-0.038
		l-0.251-0.105l-0.199-0.023l-0.263,0.003l-0.506,0.1l-0.318,0.126l-0.341,0.314l-0.039,0.152l0.035,0.129l0.058,0.098l0.023,0.126
		l-0.023,0.126l-0.054,0.117l-0.444,0.563l-0.345,0.335l-0.064,0.1l-0.228,0.484l-0.181,0.062l-0.275,0.012l-0.61-0.1l-0.273-0.082
		l-0.206-0.082l-0.744-0.452l-0.208-0.009l-0.281,0.026l-0.82,0.232l-0.234,0.12l-0.125,0.079l-0.401,0.496l-0.771-0.105
		l-0.136-0.063l-0.152-0.091l-0.07-0.111l-0.097-0.226l-0.078-0.097l-0.088-0.082l-0.111-0.053l-0.129-0.041l-0.111-0.053
		l-0.094-0.088l-0.045-0.124l-0.02-0.135l-0.006-0.158l-0.029-0.138l-0.047-0.123l-0.064-0.1l-0.236-0.27l-1.363-1.036l-0.08-0.094
		l-0.047-0.112l-0.018-0.141l-0.006-0.293l-0.018-0.129l-0.24-0.584l-0.07-0.1l-0.082-0.073l-0.31,0.047l-2.07,0.889l-0.392,0.021
		l-0.234-0.167l-0.187-0.158l-0.105-0.059l-0.125-0.021l-0.134,0.012l-0.146-0.006l-0.093-0.062l-0.362-0.502l-0.082-0.082
		l-0.082-0.059l-0.088,0.015l-0.111,0.07l-0.187,0.202l-0.146,0.107l-0.251,0.002l-0.136-0.061l-0.109-0.092l-0.125-0.211
		l-0.123-0.018l-0.152,0.076l-0.275,0.328l-0.076,0.206l-0.025,0.182l0.035,0.132l0.025,0.138l0.006,0.312l-0.023,0.305
		l-0.386,1.684l-0.099,0.23l-0.099,0.129l-0.403,0.375l-0.212,0.305l-0.117,0.229l-0.047,0.124l-0.023,0.144l-0.012,0.448
		l-0.074,0.097l-0.136,0.032l-0.251-0.091l-0.142-0.103l-0.091-0.12l-0.058-0.109l-0.175-0.488l-0.018-0.135l0.018-0.126
		l0.064-0.279v-0.152l-0.012-0.15l-0.035-0.126l-0.058-0.115l-0.076-0.097l-0.095-0.079l-0.643-0.372l-0.179-0.146l-0.113-0.068
		l-0.144-0.05l-0.201-0.029l-0.117-0.076l-0.064-0.118l-0.018-0.144v-0.144l-0.014-0.141l-0.045-0.126l-0.058-0.117l-0.088-0.082
		l-0.105-0.07l-0.117-0.044l-0.292-0.023l-0.14-0.026l-0.111-0.056l-0.068-0.098l-0.031-0.141l-0.018-0.152l0.006-0.334
		l-0.029-0.308l-0.035-0.132l-0.053-0.112l-0.07-0.1l-0.105-0.07l-0.152-0.038l-0.212-0.009l-0.321,0.056l-0.193,0.059l-0.164,0.114
		l-0.111,0.177l-0.129,0.352l-0.035,0.234l0.053,0.957l-0.006,0.153l-0.134,0.886l0.029,0.778l-0.047,0.311l-0.134,0.531
		l-0.058,0.114l-0.064,0.103l-0.152,0.114l-0.245,0.105l-0.855,0.182l-0.24,0.108l-0.298,0.369l-0.245,0.171l-1.136,0.616
		l-0.321,0.22l-0.199,0.189l-0.111,0.226l-0.234,0.279l-0.187,0.103l-0.269,0.105l-0.845,0.238l-0.232-0.006l-0.158-0.147
		l-0.304-0.135l-0.549,0.097l-0.432-0.375l-0.265-0.278l-0.16-0.082l-0.553-0.2l-0.175-0.105l-0.123-0.103l-0.076-0.088
		l-0.146-0.097l-0.259-0.067l-0.491-0.067l-0.45,0.082l-0.222,0.079l-0.123,0.062l-0.473,0.123l-0.117,0.091l-0.059,0.126
		l-0.018,0.15v0.158l-0.017,0.141l-0.119,0.091l-0.234-0.006l-0.438-0.085l-0.485-0.361l-0.111-0.126l-0.555-0.473l-0.44-0.17
		L95.352,281l-0.333-1.022l-0.275-0.545l-0.738-1.039l0.462-0.707l0.113-0.026l0.156-0.073l0.117-0.023l0.113-0.056l0.111-0.044
		l0.127-0.018l0.119,0.023l0.14,0.012l0.123-0.018l0.099-0.135l0.053-0.22l-0.017-0.473l-0.076-0.454l-0.041-0.123l-0.035-0.132
		l0.006-0.135l0.062-0.139l0.195-0.123L96,275.488l0.152-0.021l0.129-0.108l0.105-0.196l0.146-0.41l0.105-0.2l0.093-0.147
		l0.09-0.085l0.039-0.147l0.008-0.202l-0.101-0.346l-0.249-0.593l-0.016-0.123l0.039-0.15l0.152-0.161l0.222-0.379l0.094-0.073
		l0.117-0.056l0.281-0.053l0.152-0.006l0.298-0.047l0.134-0.117l0.111-0.199l0.356-1.083l0.059-0.291l0.012-0.173l-0.257-1.52
		l-0.113-0.223l-0.384-0.379l-0.31-0.68l0.584-0.453l0.109-0.132l0.119-0.194l0.035-0.273l0.018-0.365l0.023-0.132l0.099-0.235
		l0.129-0.223l0.053-0.126l0.07-0.596l0.008-0.305l0.047-0.283l0.082-0.22l0.432-0.799l0.088-0.276l0.018-0.217l-0.018-0.138
		l0.012-0.164l0.047-0.167l0.111-0.227l0.053-0.176l0.023-0.179v-0.152l-0.041-0.302l0.012-0.174l0.082-0.22l0.041-0.355
		l0.006-0.314l0.105-0.579l0.053-0.138l0.099-0.182l0.526-0.778l0.088-0.173l0.029-0.135l-0.006-0.605l0.041-0.17l0.222-0.434
		l0.054-0.206l0.035-0.337l0.047-0.129l0.121-0.079l0.265,0.006l0.175,0.038l0.156-0.009l0.131-0.073l0.111-0.208l0.123-0.312
		l0.134-0.152l0.596-0.478l0.16-0.214l0.074-0.192l-0.012-0.156l-0.027-0.141l-0.012-0.15l0.105-0.185l0.21-0.194l0.491-0.318
		l0.218-0.182l0.138-0.153l0.064-0.106l0.099-0.065l0.134-0.006l0.21,0.123l0.3,0.323l0.109,0.056l0.136,0.032l0.304,0.021
		l0.296,0.044l0.234,0.104l0.405,0.276l0.111,0.023l0.14-0.053l0.228-0.262l0.187-0.141l0.3-0.097l0.199-0.023l0.181,0.003
		l0.152,0.02l0.134,0.041l0.146,0.012l0.14-0.02l0.134-0.059l0.164-0.085l0.444-0.311l0.117-0.117l0.105-0.232l0.035-0.159
		l-0.175-0.558l0.078-1.081l0.086-0.387l0.012-0.186l-0.035-0.232l-0.14-0.44l-0.029-0.286l0.06-0.352l0.152-0.302l0.047-0.12
		l0.027-0.144l0.012-0.171l-0.035-0.226l-0.082-0.276l-0.187-0.317l-0.146-0.098l-0.152-0.025l-0.14-0.01l-0.123-0.031l-0.216-0.115
		l-0.105-0.041l-0.117,0.012l-0.119,0.041l-0.214,0.123l-0.125,0.047l-0.132,0.016l-0.129-0.029l-0.304-0.218l-0.113-0.035
		l-0.146-0.009l-0.298,0.021l-0.134-0.015l-0.105-0.053l-0.041-0.159l0.018-0.229l0.245-0.7l0.263-0.508l0.134-0.38l0.023-0.2
		l-0.006-0.244l-0.082-0.443l-0.082-0.221l-0.099-0.15l-0.298-0.188l-0.099-0.079l-0.088-0.088l-0.053-0.185l-0.023-0.265
		l0.035-0.487l-0.023-0.429l-0.025-0.088l-0.027-0.265l0.035-0.194l0.082-0.217l0.24-0.332l0.28-0.289l0.411-0.279l0.082-0.079
		l0.14-0.544l0.058-1.966l-0.079-0.227l0.648-0.597l0.454-0.135l0.499,0.156l0.296,0.378l0.238,0.459l0.327,0.406l0.802,0.434
		l0.616-0.068l0.444-0.479l0.3-0.803l0.199-0.231l1.103-0.675l0.23-0.335l0.129-0.338l0.187-0.32l0.419-0.272l1.229-1.071l0.24-1.45
		l0.018-1.617l0.565-1.572l0.929-1.132l2.791-2.153l1.001-1.001l0.425-1.208l-0.174-2.961L121.511,218.727z"/>
	<path class="st0" d="M80.025,237.096l0.286,0.449l0.442,0.891l0.259,0.301l0.368,0.147l0.717-0.033l0.374,0.074l0.847,0.569
		l0.715,0.826l0.573,0.951l0.432,0.947l0.631,0.294l1.048-0.332l1.767-1.067l0.582-0.557l0.479-0.67l0.323-0.765l0.115-0.843
		l0.466-1.717l1.157-0.608l1.48-0.267l1.455-0.694l1.323-0.86l4.054-1.576l1.299-0.505l0.876-0.202l0.806,0.19l0.596,0.795
		l0.175,0.428l0.203,0.302l0.292,0.18l0.44,0.073l0.358,0.145l0.012,0.312l-0.117,0.378l-0.02,0.34l0.738,1.734l0.586,0.646
		l0.783,0.166l0.374-0.192l0.036-0.033l0.079,0.227l-0.058,1.966l-0.14,0.544l-0.082,0.079l-0.411,0.279l-0.28,0.289l-0.24,0.332
		l-0.082,0.217l-0.035,0.194l0.027,0.265l0.025,0.088l0.023,0.429l-0.035,0.487l0.023,0.265l0.053,0.185l0.088,0.088l0.099,0.079
		l0.298,0.188l0.099,0.15l0.082,0.221l0.082,0.443l0.006,0.244l-0.023,0.2l-0.134,0.38l-0.263,0.508l-0.245,0.7l-0.018,0.229
		l0.041,0.159l0.105,0.053l0.134,0.015l0.298-0.021l0.146,0.009l0.113,0.035l0.304,0.218l0.129,0.029l0.132-0.016l0.125-0.047
		l0.214-0.123l0.119-0.041l0.117-0.012l0.105,0.041l0.216,0.115l0.123,0.031l0.14,0.01l0.152,0.025l0.146,0.098l0.187,0.317
		l0.082,0.276l0.035,0.226l-0.012,0.171l-0.027,0.144l-0.047,0.12l-0.152,0.302l-0.06,0.352l0.029,0.286l0.14,0.44l0.035,0.232
		l-0.012,0.186l-0.086,0.387l-0.078,1.081l0.175,0.558l-0.035,0.159l-0.105,0.232l-0.117,0.117l-0.444,0.311l-0.164,0.085
		l-0.134,0.059l-0.14,0.02l-0.146-0.012l-0.134-0.041l-0.152-0.02l-0.181-0.003l-0.199,0.023l-0.3,0.097l-0.187,0.141l-0.228,0.262
		l-0.14,0.053l-0.111-0.023l-0.405-0.276l-0.234-0.104l-0.296-0.044l-0.304-0.021l-0.136-0.032l-0.109-0.056l-0.3-0.323l-0.21-0.123
		l-0.134,0.006l-0.099,0.065l-0.064,0.106l-0.138,0.153l-0.218,0.182l-0.491,0.318l-0.21,0.194l-0.105,0.185l0.012,0.15l0.027,0.141
		l0.012,0.156l-0.074,0.192l-0.16,0.214l-0.596,0.478l-0.134,0.152l-0.123,0.312l-0.111,0.208l-0.131,0.073l-0.156,0.009
		l-0.175-0.038l-0.265-0.006l-0.121,0.079l-0.047,0.129l-0.035,0.337l-0.054,0.206l-0.222,0.434l-0.041,0.17l0.006,0.605
		l-0.029,0.135l-0.088,0.173l-0.526,0.778l-0.099,0.182l-0.053,0.138l-0.105,0.579l-0.006,0.314l-0.041,0.355l-0.082,0.22
		l-0.012,0.174l0.041,0.302v0.152l-0.023,0.179l-0.053,0.176l-0.111,0.227l-0.047,0.167l-0.012,0.164l0.018,0.138l-0.018,0.217
		l-0.088,0.276l-0.432,0.799l-0.082,0.22l-0.047,0.283l-0.008,0.305l-0.07,0.596l-0.053,0.126l-0.129,0.223l-0.099,0.235
		l-0.023,0.132l-0.018,0.365l-0.035,0.273l-0.119,0.194l-0.109,0.132l-0.584,0.453l0.31,0.68l0.384,0.379l0.113,0.223l0.257,1.52
		l-0.012,0.173l-0.059,0.291l-0.356,1.083l-0.111,0.199l-0.134,0.117l-0.298,0.047l-0.152,0.006l-0.281,0.053l-0.117,0.056
		l-0.094,0.073l-0.222,0.379l-0.152,0.161l-0.039,0.15l0.016,0.123l0.249,0.593l0.101,0.346l-0.008,0.202l-0.039,0.147l-0.09,0.085
		l-0.093,0.147l-0.105,0.2l-0.146,0.41l-0.105,0.196l-0.129,0.108L96,275.488l-0.169,0.041l-0.195,0.123l-0.062,0.139l-0.006,0.135
		l0.035,0.132l0.041,0.123l0.076,0.454l0.017,0.473l-0.053,0.22l-0.099,0.135l-0.123,0.018l-0.14-0.012l-0.119-0.023l-0.127,0.018
		l-0.111,0.044l-0.113,0.056l-0.117,0.023l-0.156,0.073l-0.113,0.026l-0.462,0.707l0.738,1.039l0.275,0.545L95.352,281l-0.549,1.464
		l-0.066,0.613l0.035,0.293l0.195,0.747l0.039,0.114l0.072,0.112l0.374,0.355l0.158,0.369l0.017,0.209l-0.047,0.141l-0.099,0.067
		l-0.134,0.059l-0.123,0.108l-0.304,0.666l-0.117,0.36l-0.082,0.19l-0.093,0.141l-0.101,0.073l-0.228,0.23l-0.345,0.545l0.479,0.334
		l0.417,0.619l0.17,0.144l0.158,0.044l0.257-0.082l1.743,0.537l0.444,0.082l0.152,0.082l0.093,0.108l0.041,0.129l0.006,0.129
		l-0.023,0.123l-0.111,0.22l-0.035,0.132l-0.105,0.253l-0.146,0.196l-0.064,0.117l-0.035,0.132l0.047,0.182l0.134,0.114l0.281,0.177
		l0.129,0.111l0.138,0.39l0.06,1.565l0.204,0.438l0.14,0.117l0.175,0.22l0.059,0.167l-0.016,0.145l-0.07,0.179l-0.055,0.229
		l-0.053,0.439l0.035,0.2l0.088,0.129l0.105,0.064l0.37,0.164l0.532,0.129l0.105,0.044l0.356,0.111l0.187,0.103l0.047,0.123
		l-0.023,0.103l-0.14,0.191l-0.023,0.272l0.029,0.431l0.205,0.977l0.158,0.446l0.142,0.237l0.117-0.003l0.308-0.164l0.113-0.023
		l0.117,0.026l0.292,0.196l0.146,0.067l0.345,0.334l0.935,1.278l-0.795,2.279l-0.117,0.662l0.035,0.126l0.012,0.029l0.397,0.42
		l0.07,0.346l0.23,2.77l0.214,0.63l0.136,0.203l0.304,0.346l0.134,0.313l0.045,0.29l0.008,0.426l-0.181,1.576l0.035,0.331
		l0.088,0.197l0.134,0.035l0.146,0.018l0.315,0.152l0.368,0.574l-0.689,0.206l-0.093,0.088l-0.158,0.17l-0.111,0.187l-1.323,1.709
		l-0.777,0.773l-0.38,0.27l-0.312,0.182l-0.16,0.047l-0.238,0.023l-0.14-0.035l-0.105-0.061l-0.064-0.059l-0.047-0.067l-0.234-0.402
		l-0.088-0.082l-0.099-0.07l-0.234-0.111l-0.105-0.07l-0.093-0.073l-0.082-0.094l-0.064-0.097l-0.09-0.088l-0.129-0.076
		l-0.327-0.091l-0.088-0.059l-0.047-0.054l-0.047-0.091l-0.187-0.495l-0.064-0.099l-0.304-0.36l-0.09-0.08l-0.093-0.062
		l-0.115-0.035l-0.45-0.07l-0.292-0.082l-0.234-0.129l-0.119-0.085l-0.105-0.091l-0.164-0.105l-0.099-0.047l-0.099-0.064
		l-0.099-0.073l-0.082-0.092l-0.064-0.111l-0.047-0.126l-0.035-0.132l-0.093-0.146l-0.134-0.141l-0.38-0.17l-0.321-0.038
		l-0.516,0.053l-0.245,0.065l-0.181,0.067l-0.099,0.07l-0.07,0.094l-0.053,0.12l-0.035,0.132l-0.093,0.246l-0.059,0.106
		l-0.029,0.114l0.029,0.103l0.07,0.091l0.24,0.258l0.064,0.1l0.181,0.508l0.169,0.668l0.076,0.651l-0.362,0.521l-0.808,0.478
		l-0.366,0.12l-0.919,0.187l-0.613,0.018l-0.14-0.044l-0.117-0.056l-0.099-0.07l-0.078-0.091l-0.062-0.102l-0.105-0.24l-0.035-0.133
		l-0.019-0.138v-0.152l0.019-0.158l0.027-0.123v-0.31l-0.339-0.212l-0.263,0.023l-0.537,0.262l-0.152-0.009l-0.111-0.056
		l-0.222-0.256l-0.205-0.167l-0.154-0.029l-0.121,0.032l-0.281,0.182l-0.277,0.092l-0.148-0.018l-0.109-0.064l-0.245-0.461
		l-0.099-0.123l-0.152-0.138l-0.123,0.009l-0.088,0.085l-0.082,0.141l-0.105,0.018l-0.105-0.032l-0.076-0.085l-0.035-0.105
		l0.023-0.234l-0.066-0.139l-0.327-0.284l-0.146-0.012l-0.088,0.064l-0.029,0.126l-0.049,0.147l-0.086,0.146l-0.485,0.249
		l-0.199-0.012l-0.21-0.097l-0.164-0.029l-0.154,0.032l-0.261,0.228l-0.093-0.003l-0.02-0.076l0.07-0.228l0.012-0.127l-0.016-0.119
		l-0.008-0.115l0.09-0.07l0.175-0.009l0.339,0.076l0.175-0.021l0.074-0.076l-0.021-0.105l-0.07-0.091l-0.17-0.164l-0.07-0.088
		l-0.041-0.114l-0.012-0.269l-0.064-0.142l-0.09-0.006l-0.097,0.05l-0.082,0.094l-0.07,0.1l-0.082,0.083l-0.09,0.067l-0.214,0.114
		l-0.095,0.082l-0.152,0.223l-0.107,0.091l-0.08-0.021l-0.041-0.102l-0.012-0.129l0.006-0.141l-0.049-0.256l0.049-0.433l-0.076-0.17
		l-0.123-0.047l-0.123,0.006l-0.333,0.088l-0.304,0.009l-0.146-0.076l-0.101-0.138l-0.062-0.158l-0.129-0.174l-0.136-0.059
		l-0.129,0.006l-0.105,0.047l-0.158,0.106l-0.076,0.041l-0.093,0.023l-0.269-0.003l-0.053,0.015l-0.099,0.047l-0.076,0.067
		l-0.07,0.105l-0.035,0.129l-0.037,0.264l-0.062,0.088l-0.113,0.088l-0.267,0.074l-0.166-0.016l-0.129-0.059l-0.074-0.099
		l-0.047-0.12l-0.012-0.138l0.016-0.141l0.093-0.243l0.113-0.206l0.152-0.193l0.053-0.111l-0.064-0.161l-0.183-0.187l-0.929-0.578
		l-0.064-0.094l-0.041-0.108l0.012-0.126l0.035-0.129l0.045-0.12l0.025-0.143v-0.149l-0.105-0.197l-0.117-0.076l-0.152-0.023
		l-0.292,0.044l-1.06,0.3l-1.373,0.111l-0.709,0.193l-0.136,0.062l-0.005,0.002l0.037-0.035l0.144-0.284l-0.429-0.118l-0.837,0.12
		l-0.423,0.129l-0.175,0.151l-0.417,0.169l-0.933-0.295l-0.96-0.464l-0.524-0.326l-0.423-0.566l-0.23-0.598l-0.101-0.693
		l0.018-1.889l0.193-0.618l0.469-0.275l2.374,0.108l0.745-0.117l0.598-0.744l0.65-0.292l0.767-0.137l0.62,0.125l-0.374-0.812
		l-0.88,0.089l-0.899,0.451l-0.417,0.272l-0.966-0.095l-0.175-0.59l0.141-0.889l-0.025-0.981l-0.383-0.504l-1.96-1.327l-0.617-0.601
		l-0.745-0.541l-0.837-0.163l-0.865,0.531l-0.377-0.77l-0.359-1.23l-0.156-1.135l0.239-0.5l-0.564-0.185l-0.172-0.461l-0.028-0.592
		l-0.15-0.591l-0.429-0.423l-0.374-0.082l-0.16-0.218l0.193-0.826l0.35-0.961l0.12-0.515l0.046-0.718l0.163-0.498l0.721-0.528
		l0.166-0.522l0.101-1.049l0.672-2.463l0.488-1.026l-0.577,0.231l-0.675-0.182l-0.564-0.498l-0.239-0.714l0.129-0.76l0.353-0.702
		l0.497-0.332l0.589,0.348l0.261-0.532l0.294-0.439l0.331-0.34l0.38-0.234l-0.899-0.166l-0.828,0.306l-0.61,0.014l-0.239-1.048
		l-0.126-1.873l0.353-0.491l1.083-0.078v-0.282l-0.218-0.038l-0.555-0.219l0.291-0.533l-0.092-0.245l-0.736-0.257l-0.383-0.048
		L65.28,274l-0.19-0.051l-0.212-0.534l-0.04-0.52l0.298-0.637v-0.391l-0.221-0.129l-0.368-0.022l-0.328-0.142l-0.114-0.506
		l-0.383,0.205l-0.405,0.082l-0.896-0.005l-0.414-0.162l0.184-0.333l0.389-0.286l0.215-0.017l-0.025-0.508l-0.138-0.168
		l-0.285-0.122l-0.442-0.366l-0.377-0.185l-0.414,0.091l-0.377,0.239l-0.258,0.268l-0.463-0.527l-0.218-0.502l-0.129-0.513
		l-0.221-0.549l-0.929-1.065l-0.233-0.796l-0.564-1.286l-0.316-0.533l-0.295-0.865l0.052-0.311l0.135-0.028l0.178,0.049l0.169-0.099
		l0.383-0.42l0.423-0.35l0.152-0.2l0.005,0.001l0.023,0.004l2.861-0.666l0.386-0.044l0.479,0.173l0.286,1.028l0.234,0.302
		l0.136,0.038l0.421,0.191l0.386,0.274l0.257,0.117l0.292,0.068l0.234-0.023l0.164-0.044l0.125-0.067l0.094-0.076l0.538-0.652
		l0.561-0.47l0.076-0.088l0.064-0.106l0.169-0.546l0.169-0.323l2.672-2.385l0.14-0.208l0.035-0.068l0.035-0.085l0.166-0.579
		l0.28-0.61l0.129-0.182l0.123-0.129l0.917-0.638l0.193-0.182l0.129-0.185l0.035-0.115l0.082-0.429l0.358-0.69l0.269-0.2
		l1.293-0.179l0.952-0.255l0.397-0.147l0.255-0.129l0.487-0.55l0.136-0.205l0.121-0.229l0.093-0.245l0.253-1.093l0.018-0.314
		l-0.018-0.317l0.023-0.314l0.158-1.464l0.199-0.511l0.164-0.212l0.281-0.443l0.169-0.182l0.144-0.064l0.101,0.05l0.175,0.158
		l0.187-0.026l0.253-0.12l0.479-0.497l0.234-0.37l0.245-0.564l0.134-0.479l0.018-0.144v-0.32l0.082-0.656v-0.188l-0.035-0.15
		l-0.064-0.112l-0.099-0.076l-0.111-0.063l-0.129-0.035l-0.111-0.053l-0.105-0.106l-0.076-0.167l-0.053-0.305l0.041-0.17
		l0.076-0.109l0.32-0.292l0.271-0.373l0.193-0.197l0.464-0.315l0.121-0.141l0.07-0.138l0.516-2.166l0.021-0.22l-0.051-0.097
		l-0.07-0.079l-0.093-0.073l-0.323-0.194l-0.086-0.089l-0.117-0.22l-0.16-0.185l-0.064-0.106l-0.152-0.632l0.053-0.106l0.094-0.088
		l0.136-0.038l0.144-0.018L80.025,237.096z"/>
	<path class="st0" d="M614.26,269.816l0.629,0.018l0.58-0.077l0.423-0.28l0.356-1.259l0.442-0.339l0.518,0.052l0.42,0.53
		l0.117,0.265l0.199,0.071l0.819-0.055l0.362,0.063l0.38,0.152l0.298,0.208l0.405,0.74l0.666,0.228l0.779,0.012l0.607-0.112
		l0.448-0.306l1.252-1.265l0.166-0.228l0.515-0.453l0.008,0.001l3.477,0.37l1.819-0.114l1.091-0.176l0.682-0.012l0.497,0.103
		l0.286,0.246l0.234,0.409l0.818,3.572l0.035,0.411l-0.016,0.393l-0.586,1.908l-0.169,0.405l-0.205,0.34l-0.773,0.746l-0.179,0.308
		l-0.117,0.341l-0.148,0.712l-0.111,1.318l-0.07,0.387l-0.134,0.39l-1.227,2.145l-0.064,0.2l-0.041,0.305l0.117,2.896l0.21,0.548
		l0.567,0.942l0.123,0.34l0.029,0.297l-0.025,0.898l0.066,0.662l0.181,0.428l0.228,0.294l0.28,0.144l0.304,0.1l0.604,0.132
		l0.292,0.1l0.308,0.199l0.382,0.341l0.51,0.662l0.216,0.479l0.07,0.41l-0.07,0.405l-0.271,0.812l-0.152,0.32l-1.134,1.486
		l-0.164,0.439l-0.076,0.531l0.035,0.903l0.117,0.609l0.158,0.479l0.187,0.304l0.002,0.004l-0.22,0.657l-0.421,3.338l-0.475,1.636
		l-0.725,1.47l-0.351,0.419l-1.324,0.725l-0.265,0.268l-0.02,0.861l0.596,0.539l0.771,0.433l0.53,0.548l0.027,1.249l-1.465,4.393
		l-0.222,1.482l-0.008,1.504l0.156,0.902l0.935,2.277l0.043,0.394l-0.078,0.767l0.012,0.382l0.129,0.471l0.623,1.122l0.3,0.783
		l0.023,0.415l-0.218,0.354l-0.393,0.152l-0.339-0.098l-0.335-0.168l-0.374-0.06l-0.806,0.824l-0.686,1.754l-1.313,5.689
		l0.027,0.659l0.596,0.726l0.569,0.189l0.097,0.283l-1.313,1.748l-0.234,0.677l-0.144,1.605l-0.304,0.743l-0.608,0.255l-1.55,0.172
		l-2.462,1.071l-1.188,0.197l-1.079-0.515l-0.962-1.432l-0.518-0.156l-0.643,0.971l-0.643,1.328l-0.436,0.493l-2.162,1.478
		l-0.612,0.585l-0.499,0.79l-0.164,0.443l-0.094,0.39l-0.14,0.388l-0.296,0.435l-0.514,0.439l-0.319,0.146l-0.082,0.168l0.187,0.507
		l0.99,1.272l0.245,0.739l-0.417,0.922l-0.409,0.283l-0.397,0.08l-0.339,0.142l-0.234,0.468l0.035,0.368l0.409,0.753l0.117,0.367
		l-0.167,0.778l-0.331,0.844l-0.082,0.762l0.565,0.528l0.417,0.01l0.814-0.392l0.409-0.119l0.448,0.043l0.487,0.148l0.46,0.218
		l0.374,0.251l0.569,0.612l0.581,0.872l0.429,0.887l0.09,0.667l-0.506,0.729l-0.787,0.273l-1.706,0.154l-0.81,0.511l-1.418,1.606
		l-0.58,0.343l-0.651,0.287l-1.609,1.378l-0.721,0.468l-1.449-0.121l-0.464,0.255l-0.261,0.825l0.055,0.786l0.109,0.587
		l-0.238,0.439l-1.013,0.335l-2.918,0.396l-1.141,0.659l-0.576,1.476l-0.429,2.058l0.035,0.706l0.14,0.33l0.425,0.597l0.086,0.383
		l-0.039,1.26l0.039,0.318l0.389,0.836l0.436,0.047l0.604-0.27l0.873-0.105l0.366,0.247l0.16,0.5l-0.008,0.574l-0.097,0.475
		l-0.327,0.773l-0.167,0.637v0.646l0.16,0.803l-0.062,0.71l-0.487,0.461l-2.111,0.815l-2.037,0.253l-0.37,0.148l-0.397,0.295
		l-0.343,0.358l-0.203,0.333l-0.105,0.412l0.047,0.26l0.121,0.277l0.117,0.467l0.043,1.172l-0.417,2.612l-0.705,1.982l-0.974,1.608
		l-0.557,0.647l-1.325,1.064l-0.428,0.642v0.91l0.171,0.805l0.012,0.812l-0.242,0.731l-0.604,0.568l-0.88,0.208l-0.814-0.249
		l-2.988-2.117l-0.873-0.429l-0.88-0.128l-0.721,0.188l-5.591,2.357l-0.097,0.041l-0.814,0.562l-0.37,0.111l-0.491-0.162
		l-0.382-0.358l-0.347-0.414l-0.382-0.336l-1.383-0.434l-1.519,0.023l-5.438,0.851l-0.697,0.284l-0.865,0.734l-2.263,2.857
		l-5.98,4.014l-0.931,0.214l-1.067-0.53l-1.897-2.26l-0.818-0.452l-0.795-0.035l-0.795,0.218l-1.484,0.616l-1.71-0.059l-2.785-2.166
		l-1.796-0.66l-2.197-0.453l-1.695-0.107l-0.534-0.167l-1.239-0.961l-1.383-0.667l-1.449-0.131l-1.476,0.257l-1.441,0.486
		l-0.565-0.021l-0.109-0.298l0.222-0.408l1.149-0.852l0.588-0.615l0.421-0.721l0.222-0.829l-0.035-0.853l-0.351-0.519l-0.639-0.354
		l-0.904-0.365l-0.647-0.094l-1.823,0.068l-0.736-0.164l-0.631-0.218l-0.619-0.078l-0.697,0.251l-0.37,0.334l-0.23,0.36
		l-0.265,0.313l-0.452,0.21l-0.253-0.022l-0.978-0.296l-11.247-0.582l-0.927,0.21l-0.608,0.43l-0.522,0.529l-0.654,0.502
		l-0.662,0.212l-2.333,0.225l-0.9,0.299l-4.34,2.065l-0.697,0.547l-0.281,0.943l0.187,0.329l0.857,0.029l0.234,0.324l-0.023,0.443
		l-0.129,0.4l-1.18,2.366l-1.983,5.706l-0.269,0.444l-0.506,0.222l-0.958,0.136l-3.043-0.016l-2.384,0.754l-3.28,3.98l-2.271,0.583
		l-1.079-0.318l-1.963-0.83l-1.013-0.277l-0.674-0.055l-0.553,0.074l-3.159,1.227l-0.884,1.253l-0.46,0.228l-0.421-0.845
		l-0.152-0.643l-0.21-0.563l-0.39-0.353l-0.662-0.016l-1.488,0.467l-0.736,0.148l-0.806-0.047l-0.841-0.24l-5.06-2.238l-0.752-0.074
		l-8.449,2.168l-2.368,0.076l-1.137,0.195l-1.044,0.503l-2.1,1.792l-0.374,0.584l-0.031,0.674l-0.086,0.306l-0.273,0.185
		l-0.206-0.043l-0.382-0.319l-0.105-0.062l-0.475,0.246l-0.035,0.111l-0.752,0.294l-0.156-0.004l-0.425-0.152h-0.199l-0.421,0.253
		l-0.701,0.666l-0.495,0.183l-0.51-0.066l-0.335-0.259l-0.253-0.296l-0.277-0.17l-0.428-0.031l-0.144,0.117l-0.136,0.284
		l-0.374,0.46l-1.589,0.744l-1.792-0.224l-1.737-0.845l-1.418-1.12l-1.582-2.155l-0.623-0.557l-0.471-0.193l-1.917-0.423
		l-0.545,0.09l-0.51,0.162l-0.351-0.123l-0.066-0.77l-0.195-0.918l-1.878-2.739l-0.814-1.601l-0.557-0.764l-0.686-0.355
		l-2.213-0.292l-0.713-0.265l-0.857-0.635l-0.795-1.436l-0.701-0.639l-1.352-0.649l-0.471-0.409l-0.452-0.795l-0.725-2.219
		l-0.464-0.613l-0.686-0.34l-0.728-0.002l-0.748,0.09l-0.756-0.068l-0.654-0.539l-0.666-1.599l-0.273-0.256l-0.717,0.395
		l-0.226-0.062l-0.09-1.052l-0.257-0.4l-3.358-2.88l-0.725-0.918l-0.417-0.771l-0.199-0.737l-0.043-1.729l0.249-2.974l-0.203-0.721
		l-0.67-0.255l-1.656-0.008l-0.495-0.173l-0.428-0.362l-0.339-0.459l-0.257-0.461l-0.191-0.469l-0.016-0.282l0.016-0.281
		l-0.238-1.361l0.035-0.572l0.323-0.474l1.375-1.164l0.401-0.465l0.573-0.838l0.993-1.756l0.703-2.019l0.006,0.025l0.169,0.642
		l0.086,0.835l0.374,1.535l0.055,0.743l-0.135,0.605l-0.178,0.525l-0.025,0.608l0.337,0.839l1.11,1.57l0.693,0.703l0.767,0.562
		l2.325,0.985l1.337,0.881l1.534,0.649l0.644,0.479l0.454,0.644l0.632,1.309l0.46,0.608l0.528,0.117l1.865-0.037l0.451-0.08
		l0.574-0.298l0.816-0.098l4.81,0.035l0.5,0.118l0.736,0.509l0.423,0.12l0.175-0.103l0.58-0.488l0.276-0.156l0.353-0.127
		l0.218-0.037l0.221,0.135l0.902,1l0.258,0.08l0.184-0.663l0.365-0.444l0.095-0.225l-0.028-0.235l-0.184-0.382l-0.046-0.153
		l-0.055-1.195l0.055-0.351l0.463-0.826l0.604-0.374l0.515,0.19l0.291,1.094l0.344,0.46l0.12,0.229l0.028,0.25l-0.061,0.534
		l0.034,0.244l0.129,0.267l0.169,0.215l0.202,0.169l0.251,0.146l0.27,0.106l0.331,0.074l0.837,0.052l0.384-0.158l0.463-0.709
		l1.132-0.387l0.687-0.378l0.607-0.074l0.482,0.677l-0.463,0.58l-0.331,0.528l-0.19,0.583l-0.067,0.755l-0.141,0.295l-0.669,0.69
		l-0.218,0.431l1.012-0.419l0.525-0.051l0.543,0.213l0.359,0.422l0.101,0.407l0.126,0.321l0.423,0.161l0.344-0.078l0.782-0.397
		l0.439-0.04l0.509,0.18l1.546,0.849l2.172,0.652l0.963,0.539l0.472,0.896l-0.221,0.942l-0.672,0.681l-1.42,0.927v0.279l0.997-0.028
		l0.782-0.141l0.693-0.35l0.751-0.652l0.377-0.713l-0.046-0.732l-0.187-0.686l-0.025-0.583l1.006-0.783l1.745,0.242l3.211,1.312
		l1.626,1.054l2.865,2.877l1.448,0.962l2.245,1.128l0.475,0.158l0.905-0.13l1.252-0.652l0.788-0.245l1.224,0.483l1.362,1.123
		l1.482,0.704l1.62-0.767L471.814,404l-1.049-0.388l-0.512-0.1l-0.169-0.236l-0.35-1.046l-0.267-0.236l-0.598-0.092l-1.049-0.371
		l-0.552-0.054l-0.442,0.127l-1.362,0.623l-0.819,0.032l-0.709-0.21l-0.617-0.407l-0.543-0.561l-0.678-0.497l-1.669-0.667
		l-0.626-0.522l-0.681-1.801l-0.724-0.703l-0.16-0.457l-0.046-1.108l0.046-0.307l0.509-1.31l0.31-1.382l0.35-0.488l2.172-0.416
		l0.831-0.034l0.736,0.258l0.497,0.675l0.494,0.878l0.607,0.522l0.862-0.387l0.482-0.097l0.525,0.37l0.632,0.328l0.816-0.227
		l-0.758-0.227l-0.359-0.166l-0.672-0.516l-0.331-0.04l-0.331,0.021l-0.745-0.202l-0.245,0.018l-0.123-0.097l-0.037-0.456
		l-0.432-0.617l-0.083-0.169l-0.138-0.14l-0.681-0.136l-0.236-0.084l-0.153-0.18l-0.871-1.488l-0.19-0.509l-0.074-0.562l0.181-0.218
		l0.844-0.209l0.264-0.23l-0.061-0.215l-0.567-0.362l-0.138-0.31l0.123-0.758l0.319-0.694l0.84-1.289l1.184-2.455l1.08-3.487
		l0.074-0.881l0.203-0.186l0.457,0.069l0.751,0.245l0.923-0.074l-0.978-0.826l-0.068-0.902l0.522-0.482l0.672,0.054l0.745,0.267
		l1.374,0.272l0.319-0.065l0.509-0.327l0.245-0.275l0.699-0.978l0.111-0.295l-0.35-0.309l-0.448,0.143l-0.374,0.394l-0.31,0.941
		l-0.359,0.078l-0.396-0.153l-1.031-0.663l-0.782-0.129l-2.699,0.397l-0.534-0.069l-0.199-0.408l-0.028-0.866l0.23-0.6l0.574-0.608
		l0.751-0.359l0.758,0.152l-0.399-0.712l-0.709-0.261l-0.672-0.129l-0.304-0.304l0.064-0.682l0.451-1.776l0.377-2.643l0.469-1.027
		l0.957-0.755l0.316,0.636l0.494,0.304l1.27,0.396l0.432,0.373l0.945,1.159l0.313,0.246l0.215,0.114l0.239,0.218l0.267,0.152
		l0.316-0.084l1.184-0.804l0.35-0.111l1.27-0.193l0.276,0.064l0.681,0.504l0.745,0.422l-0.313-0.68l-0.755-0.78l-1.23-1.138
		l-0.313-0.462l-0.448-1.584l-0.291-0.556l1.169,0.069l1.049,0.272l0.902,0.037l0.745-0.633l0.205,0.092l0.055,0.049l0.061-0.02
		l0.212-0.121l-0.819-0.307l-1.426-0.345l-0.607-0.378l-0.475-0.405l-0.38-0.41l-0.212-0.585l0.015-0.921l0.666-2.317l0.187-1.479
		l0.255-0.548l0.408-0.415l2.712-2.077l4.113-2.547l1.156-0.562l7.199-1.416l5.764-0.201l10.717-2.833l10.435-2.752l5.751-1.215
		l2.319-0.912l0.442,0.009l6.552-2.046l1.261-0.659l2.012-2.151l0.794-1.439l-0.488-0.839l0.285-0.332l0.997-0.674l1.81-1.589
		l0.405-0.217l0.153-0.358l1.258-1.985l2.942-2.594l0.69-1.042l0.12-0.295l0.077-0.307l0.061-0.813l0.203-0.38l0.883-0.688
		l0.196-0.237l0.258-0.403l1.804-2.035l0.883-1.525l0.307-0.851l0.117-0.882l0.307-0.701l0.712-0.589l1.558-0.89l9.135-7.895
		l7.914-10.299l0.791-1.827l-0.27-1.487l0.804-1.255l0.386-1.601l-0.012-1.791l-0.847-3.557l0.242-0.612l0.865-0.243l2.465,1.176
		l2.065,0.318l0.795,0.415l1.231,0.961l0.927,0.356l0.444,0.29l0.288,0.775l0.234,0.114l0.58,0.016l0.273,0.105l0.086,0.252
		l0.035,0.298l0.125,0.247l0.397,0.44l0.222,0.415l0.292,1.059v1.054l0.514,0.776l0.257,1.688l-0.125,0.363l-0.526,0.46
		l-0.121,0.222l0.066,0.565l0.175,0.346l1.286,0.091l1.648,0.326l1.543-0.277l0.697,0.041l0.475,0.499l0.783,2.389l0.37,0.739
		l0.538,0.725l2.368,2.193l0.799,0.563l0.3,0.288l0.183,0.388l0.28,0.937l0.187,0.299l1.55,0.18l1.776-1.035l3.467-3.316
		l0.288-0.554l0.21-1.56l0.265-0.735l0.861-1.288l0.273-0.694l-0.129-0.659l-1.177,0.479l-0.023-0.775l0.222-0.349l0.238-0.23
		l0.908-0.878l0.405-0.644l0.28-0.633l0.347-1.432l0.086-1.082l-0.28-0.185l-0.557,0.092l-0.74-0.27l-0.674-1.054l-0.226-1.383
		l-0.183-4.419l-0.129-0.838l-0.218-0.782l-0.729-1.395l-0.281-0.702l0.023-0.625l0.046-0.043l0.324-0.3l1.383-0.581l0.639-0.404
		l1.215-1.163l0.682-0.429l0.845-0.233l0.69,0.037l0.693,0.117l0.662-0.016l0.6-0.37l0.246-0.578l0.031-0.632l0.121-0.582
		l0.859-0.861l0.405-0.195l0.359-0.22l0.301-0.269l0.221-0.349l0.258,0.776l0.037,1.469l0.224,1.37l0.008,0.008l-0.264,2.999
		l0.152,3.076l0.327,1.467l1.231,2.945l0.44,1.49l0.452,3.726l0.3,0.536l0.499,0.335l2.146,0.798l0.787,0.17l1.126-0.113
		l0.316,0.113l0.588,0.495l0.393,0.167l0.725-0.029l0.331,0.123l0.682,0.456l0.873,0.382l0.826,0.031l0.545-0.597l-0.093-0.783
		l-0.545-0.809l-1.325-1.248l-0.869-1.16l-0.495-1.486l-0.21-1.595l0.019-1.488l0.304-1.495l0.058-0.655l-0.164-0.897l-2.462-7.142
		l-0.947-1.348l-0.487-0.331l-0.503-0.238l-0.347-0.353L614.26,269.816z M473.489,364.903l0.04,0.141l0.034,0.344l-0.107,0.227
		l-0.362-0.212l-0.374-0.163l-0.343,0.161l-0.282,0.332l-0.169,0.35l-0.405-0.502l-0.623-1.538l-0.399-0.322l-0.73-0.336
		l-0.172-0.784l0.285-1.664l0.074-1.529l-0.702-6.261l0.074-1.884l0.546-1.202l1.301,0.497l0.767,1.192l0.405,1.578l0.031,6.586
		l0.322,2.799L473.489,364.903z"/>
	<path class="st0" d="M58.603,261.808l0.186-0.245l0.273-1.247l0.552-1.173l0.089-0.778l-0.098-0.423l-0.359-0.759l-0.083-0.229
		l0.086-0.46l0.374-0.693l0.08-0.419l-0.123-0.487l-0.905-1.722l-0.782-1.081l-0.19-0.521l-0.058-0.855l0.236-3.255l-0.245-0.891
		l-0.856-1.512l-0.054-0.238l0.013,0.001l5.485,0.33l0.596,0.1l0.651,0.296l-0.175,0.452l-0.07,0.33l-0.07,2.271l0.66,7.78
		l0.631,4.422v0.154l-0.029,0.161l-0.099,0.152l-0.105,0.094l-0.111,0.065l-0.129,0.041l-0.45,0.015l-1.165-0.205l-0.479-0.173
		l-0.386,0.044l-2.861,0.666l-0.023-0.004L58.603,261.808z M55.05,249.295l0.328,0.586l0.583,0.316l0.356,0.353l-0.687,1.3
		l-0.166,1.467l-0.156,0.678l-0.92,1.748l-0.132,0.673l-2.037-0.379l-1.497,0.015l-0.052,0.083l-0.034,0.092l-0.114,0.043
		l-0.202-0.077l-0.162-0.182l-0.04-0.176l0.518-0.302l0.129-0.531l-0.187-1.989l0.074-1.772l-0.083-0.345l-0.175-0.294l-0.175-0.233
		l-0.083-0.173l0.083-0.367l0.135-0.291l0.024-0.259l-0.242-0.268l0.475-0.18l0.19,0.216l0.153,0.333l0.356,0.17l0.301-0.103
		l0.221-0.236l0.184-0.263l0.202-0.174l0.718-0.173l0.767,0.022l0.724,0.223L55.05,249.295z"/>
	<path class="st0" d="M108.247,357.178l-0.294-0.028l-0.469-0.285l-0.377-0.405l-0.657-0.467l-2.08-0.364l-0.77-0.355l-1.27-0.215
		l-0.825-0.35l-1.491-1.061l-0.871-1.041l-1.865-2.848l-1.169-1.004l-1.659-0.384l-1.681-0.163l-0.911-0.608l0.644-1.704
		l-0.847-0.114l0.077-0.504l1.874-2.308l0.543-0.496l0.543-0.209l0.423-0.427v-0.98l-0.294-1.814l-0.242-0.487l-1.083-0.849
		l-0.242-0.479l-0.751-4.922l-0.221-0.746l-0.543-0.613l-1.294-1.1l-0.15-0.287l-0.129-0.341l-0.218-0.284l-0.758-0.19l-0.371-0.175
		l-0.307-0.207l-0.129-0.18l-0.264-0.608l-1.791-2.366l-1.178-1.174l-0.233-0.338l-0.31-0.865l-0.745-1.08l-0.368-1.686
		l-0.276-0.811l-0.626-0.81l-2.736-1.892l-0.926-0.398l-0.368-0.252l-0.212-0.277l-0.586-1.037l-0.978-1.219l-0.635-0.441
		l-1.761-0.304l-0.402-0.397l0.037-0.65l0.396-0.881l0.634-0.594l0.005-0.002l0.136-0.062l0.709-0.193l1.373-0.111l1.06-0.3
		l0.292-0.044l0.152,0.023l0.117,0.076l0.105,0.197v0.149l-0.025,0.143l-0.045,0.12l-0.035,0.129l-0.012,0.126l0.041,0.108
		l0.064,0.094l0.929,0.578l0.183,0.187l0.064,0.161l-0.053,0.111l-0.152,0.193l-0.113,0.206l-0.093,0.243l-0.016,0.141l0.012,0.138
		l0.047,0.12l0.074,0.099l0.129,0.059l0.166,0.016l0.267-0.074l0.113-0.088l0.062-0.088l0.037-0.264l0.035-0.129l0.07-0.105
		l0.076-0.067l0.099-0.047l0.053-0.015l0.269,0.003l0.093-0.023l0.076-0.041l0.158-0.106l0.105-0.047l0.129-0.006l0.136,0.059
		l0.129,0.174l0.062,0.158l0.101,0.138l0.146,0.076l0.304-0.009l0.333-0.088l0.123-0.006l0.123,0.047l0.076,0.17l-0.049,0.433
		l0.049,0.256l-0.006,0.141l0.012,0.129l0.041,0.102l0.08,0.021l0.107-0.091l0.152-0.223l0.095-0.082l0.214-0.114l0.09-0.067
		l0.082-0.083l0.07-0.1l0.082-0.094l0.097-0.05l0.09,0.006l0.064,0.142l0.012,0.269l0.041,0.114l0.07,0.088l0.17,0.164l0.07,0.091
		l0.021,0.105l-0.074,0.076l-0.175,0.021l-0.339-0.076l-0.175,0.009l-0.09,0.07l0.008,0.115l0.016,0.119l-0.012,0.127l-0.07,0.228
		l0.02,0.076l0.093,0.003l0.261-0.228l0.154-0.032l0.164,0.029l0.21,0.097l0.199,0.012l0.485-0.249l0.086-0.146l0.049-0.147
		l0.029-0.126l0.088-0.064l0.146,0.012l0.327,0.284l0.066,0.139l-0.023,0.234l0.035,0.105l0.076,0.085l0.105,0.032l0.105-0.018
		l0.082-0.141l0.088-0.085l0.123-0.009l0.152,0.138l0.099,0.123l0.245,0.461l0.109,0.064l0.148,0.018l0.277-0.092l0.281-0.182
		l0.121-0.032l0.154,0.029l0.205,0.167l0.222,0.256l0.111,0.056l0.152,0.009l0.537-0.262l0.263-0.023l0.339,0.212v0.31l-0.027,0.123
		l-0.019,0.158v0.152l0.019,0.138l0.035,0.133l0.105,0.24l0.062,0.102l0.078,0.091l0.099,0.07l0.117,0.056l0.14,0.044l0.613-0.018
		l0.919-0.187l0.366-0.12l0.808-0.478l0.362-0.521l-0.076-0.651l-0.169-0.668l-0.181-0.508l-0.064-0.1l-0.24-0.258l-0.07-0.091
		l-0.029-0.103l0.029-0.114l0.059-0.106l0.093-0.246l0.035-0.132l0.053-0.12l0.07-0.094l0.099-0.07l0.181-0.067l0.245-0.065
		l0.516-0.053l0.321,0.038l0.38,0.17l0.134,0.141l0.093,0.146l0.035,0.132l0.047,0.126l0.064,0.111l0.082,0.092l0.099,0.073
		l0.099,0.064l0.099,0.047l0.164,0.105l0.105,0.091l0.119,0.085l0.234,0.129l0.292,0.082l0.45,0.07l0.115,0.035l0.093,0.062
		l0.09,0.08l0.304,0.36l0.064,0.099l0.187,0.495l0.047,0.091l0.047,0.054l0.088,0.059l0.327,0.091l0.129,0.076l0.09,0.088
		l0.064,0.097l0.082,0.094l0.093,0.073l0.105,0.07l0.234,0.111l0.099,0.07l0.088,0.082l0.234,0.402l0.047,0.067l0.064,0.059
		l0.105,0.061l0.14,0.035l0.238-0.023l0.16-0.047l0.312-0.182l0.38-0.27l0.777-0.773l1.323-1.709l0.111-0.187l0.158-0.17
		l0.093-0.088l0.689-0.206l1.071,1.68l0.485,0.436l0.234,0.1l0.627,0.354l0.199,0.056l0.14-0.012l0.298,0.017l0.152,0.023
		l0.742,0.287l1.288,0.742l0.222,0.199l0.152,0.352l0.064,0.1l0.156,0.184l0.066,0.1l0.047,0.123l0.027,0.135l0.154,0.387
		l0.555,0.767l0.351,0.545l0.023,0.345l-0.257,1.154l-0.062,0.179l-0.07,0.1l-0.09,0.083l-0.105,0.061l-0.251,0.08l-0.111,0.061
		l-0.099,0.07l-0.654,1.23l-0.123,0.342l-0.053,0.257l0.012,0.139l0.035,0.138l0.041,0.129l0.059,0.12l0.251,0.43l0.099,0.226
		l0.047,0.123l0.275,1.221l-0.012,0.199l-0.029,0.167l-0.321,0.583l-0.427,1.034l2.462,3.175l0.134,0.067l0.117,0.044l0.38,0.097
		l1.393,0.694l0.216,0.062l0.989,0.114l0.234,0.026l0.202,0.12l0.09,0.082l0.134,0.208l0.129,0.369l0.245,0.44l0.088,0.24
		l0.023,0.138l0.018,0.146l-0.111,0.993l0.023,0.162l0.035,0.14l0.146,0.351l0.245,0.421l0.047,0.123l0.058,0.124l0.088,0.246
		l0.029,0.129l0.018,0.299l-0.204,1.16l-0.029,0.545l0.088,0.571l0.035,0.609l0.164,0.518l0.035,0.279l-0.041,0.152l-0.088,0.132
		l-0.204,0.108l-0.298,0.126l-0.111,0.061l-0.105,0.155l-0.105,0.241l-0.146,0.489l-0.093,0.504l0.018,0.31l-0.012,0.143
		l-0.064,0.263l-0.088,0.146l-0.14,0.143l-0.697,0.495l-0.076,0.085l-0.084,0.132l-0.092,0.196l-0.181,0.706l-0.14,0.899
		l-0.117,0.41l-0.123,0.17l-0.199,0.2l-0.458,0.336l-0.257,0.137l-0.222,0.064l-0.146-0.009l-1.397-0.269l-1.147-0.079l-0.321,0.012
		l-0.522,0.091l-0.07,0.026l-0.016,0.333l0.041,0.577l0.397,2.263l0.07,1.531l-0.906,2.003l-0.323,0.539l-0.059,0.17l-0.058,0.661
		l-0.058,0.279l-0.222,0.316l-0.216,0.466l-0.093,0.932L108.247,357.178z M108.067,334.146l-0.304-0.032l-0.89-0.408l-0.438-0.492
		l-0.175-0.053l-0.125,0.018l-0.051,0.032l-0.074,0.085l-0.247,0.205l-0.481,0.237l-0.07,0.059l-0.047,0.064l-0.121,0.27
		l-0.522,0.923l-0.023,0.123l0.117,1.312l0.047,0.135l0.152,0.275l0.076,0.102l0.107,0.117l0.117,0.094l0.479,0.288l0.117,0.126
		l0.076,0.161l0.041,0.173l0.012,0.199l0.023,0.086l0.029,0.05l0.053,0.035l0.053,0.053l0.064,0.079l0.082,0.225l0.017,0.138
		l-0.012,0.123l-0.035,0.099l-0.216,0.279l-0.07,0.126l-0.035,0.143l0.016,0.167l0.101,0.269l0.053,0.202l0.059,0.158l0.115,0.118
		l0.195,0.07l0.234,0.026l0.245-0.003l1.025-0.135l0.251,0.029l0.115,0.035l0.078,0.073l0.059,0.108l0.07,0.155l0.093,0.044
		l0.117-0.108l0.088-0.167l0.064-0.205l0.088-0.132l0.103-0.051l0.14-0.003l0.136-0.038l0.117-0.094l0.055-0.158l0.012-0.211
		l-0.16-1.435l-0.181-0.721l-0.053-0.431l0.023-0.254l0.093-0.117l0.14-0.14l0.058-0.155l0.055-0.534l0.082-0.158l0.257-0.237
		l0.058-0.117l0.035-0.161l-0.035-0.223l-0.066-0.231l-0.164-0.328l-0.152-0.404l-0.132-0.147l-0.09-0.129l-0.134-0.059
		l-0.169,0.015l-0.362,0.159l-0.187,0.143L108.067,334.146z M106.75,346.673l0.269-0.073l0.538-0.468l0.175-0.266l0.125-0.311
		l0.736-0.943l0.029-0.658l-0.281-0.366l-0.292-0.285l-0.111-0.667l-0.292,0.187l-0.16,0.044l-0.214,0.114l-0.557,0.108
		l-0.251,0.117l-0.088,0.216l0.082,0.217l0.144,0.214l0.019,0.17l-0.117,0.138l-0.031,0.246l0.142,0.583l-0.018,0.19l-0.076,0.123
		l-0.082,0.173l-0.105,0.105l-0.134,0.349l0.047,0.269l0.152,0.293l0.187,0.135L106.75,346.673z M91.285,340.174l-0.144,0.421
		l-0.291,0.192l-0.595,0.152l-0.258-0.335l0.279-0.527l0.696-0.276L91.285,340.174z M93.791,339.971l-0.046,0.267l0.055,0.484
		l-0.098,0.865l-0.521,0.485l-0.724,0.283l-0.564,0.395l-0.221,0.216l-0.218,0.18l-0.285,0.097l-0.064-0.24l0.064-0.401l0.914-2.294
		l0.512-0.794l0.663-0.27l0.479,0.23L93.791,339.971z"/>
	<path class="st0" d="M118.321,364.895l0.012-0.12l-0.626-0.154l-0.601-0.233l-1.11-0.666l-0.662,0.439l-1.196,0.074l-0.46,0.54
		l-0.267-0.94l-0.074-1.205l-0.193-1.041l-0.635-0.444l-0.258-0.129l-0.365-0.304l-0.546-0.597l-0.761-2.183l-0.325-0.404
		l-0.506-0.209l-1.5-0.141l0-0.004l0.093-0.932l0.216-0.466l0.222-0.316l0.058-0.279l0.058-0.661l0.059-0.17l0.323-0.539
		l0.906-2.003l-0.07-1.531l-0.397-2.263l-0.041-0.577l0.016-0.333l0.07-0.026l0.522-0.091l0.321-0.012l1.147,0.079l1.397,0.269
		l0.146,0.009l0.222-0.064l0.257-0.137l0.458-0.336l0.199-0.2l0.123-0.17l0.117-0.41l0.14-0.899l0.181-0.706l0.092-0.196
		l0.084-0.132l0.076-0.085l0.697-0.495l0.14-0.143l0.088-0.146l0.064-0.263l0.012-0.143l-0.018-0.31l0.093-0.504l0.146-0.489
		l0.105-0.241l0.105-0.155l0.111-0.061l0.298-0.126l0.204-0.108l0.088-0.132l0.041-0.152l-0.035-0.279l-0.164-0.518l-0.035-0.609
		l-0.088-0.571l0.029-0.545l0.204-1.16l-0.018-0.299l-0.029-0.129l-0.088-0.246l-0.058-0.124l-0.047-0.123l-0.245-0.421
		l-0.146-0.351l-0.035-0.14l-0.023-0.162l0.111-0.993l-0.018-0.146l-0.023-0.138l-0.088-0.24l-0.245-0.44l-0.129-0.369l-0.134-0.208
		l-0.09-0.082l-0.202-0.12l-0.234-0.026l0.191-0.171l0.093-0.053l0.113-0.076l0.076-0.094l0.041-0.12l0.023-0.132l0.051-0.126
		l0.078-0.091l0.228,0.044l0.333,0.161l0.707,0.472l0.263,0.263l0.14,0.231l0.012,0.152l0.043,0.126l0.07,0.096l0.097,0.064
		l0.218,0.12l0.187,0.156l0.076,0.076l0.134,0.111l0.129,0.05l0.21,0.05l0.701,0.032l0.505-0.053l0.152,0.032l0.152,0.085
		l0.193,0.208l0.093,0.167l0.132,0.419l0.055,0.117l0.041,0.123l0.023,0.135l0.012,0.452l0.029,0.14l0.047,0.12l0.121,0.067
		l0.183,0.009l0.351-0.094l0.351-0.149l0.288-0.215l0.105-0.064l0.129-0.044l0.421-0.067l0.105-0.061l0.082-0.085l0.07-0.096
		l0.222,0.006l0.347,0.094l1.525,0.741l4.696,1.525l0.288,0.073l2.883,0.457l0.251,0.176l1.498,1.622l0.058,0.106l1.122,1.443
		l7.604,5.186l0.117,0.05l0.109,0.032l0.131-0.015l0.099-0.056l0.082-0.079l0.093-0.067l0.094-0.041l0.257,0.395l0.393,1.775
		l-0.201,1.139l-2.123,5.577l-0.333,1.025l-0.006,0.181l0.012,0.219l0.175,0.29l0.117,0.249v0.152l-0.041,0.123l-0.251,0.258
		l-0.117,0.167l-0.123,0.231l-0.228,0.526l-0.088,0.337l-0.064,0.415l0.023,0.196l0.047,0.199l0.07,0.171l0.064,0.295l-0.043,0.19
		l-0.208,0.468l-0.035,0.177l0.088,0.447l0.105,0.331l0.012,0.132l-0.035,0.203l-0.094,0.184l-0.462,0.544l-0.123,0.346
		l-0.105,0.972l-5.382-1.251l-0.567-0.319l-2.181-0.925l-1.147-0.029l-0.38,0.07l-2.556,0.849l-0.304,0.035l-1.545-0.325l-0.96-0.39
		l-0.643-0.36l-0.129-0.017l-0.088,0.009l-0.129,0.096l-0.625,0.642l-0.134,0.091l-0.181,0.096l-1.591,0.424l-0.216,0.015
		l-0.729-0.205l-0.185,0.018l-0.105,0.047l-0.035,0.067l-0.018,0.093l0.012,0.384l-0.059,0.088l-0.064,0.059l-0.129,0.076
		l-0.088,0.111l-0.14,0.342l-0.111,0.054l-0.117-0.012l-0.099-0.092l-0.07-0.091l-0.146-0.251l-0.633,0.758l-0.327,0.301
		l-1.215,0.682L118.321,364.895z"/>
	<path class="st0" d="M137.183,376.149l-5.286-2.15l-6.055-2.505l-1.27-0.727l-1.031-0.817l-2.853-3.153l-0.414-0.198l-0.813-0.161
		l-0.742-0.424l-0.451-0.585l0.053-0.535l0.01-0.006l1.215-0.682l0.327-0.301l0.633-0.758l0.146,0.251l0.07,0.091l0.099,0.092
		l0.117,0.012l0.111-0.054l0.14-0.342l0.088-0.111l0.129-0.076l0.064-0.059l0.059-0.088l-0.012-0.384l0.018-0.093l0.035-0.067
		l0.105-0.047l0.185-0.018l0.729,0.205l0.216-0.015l1.591-0.424l0.181-0.096l0.134-0.091l0.625-0.642l0.129-0.096l0.088-0.009
		l0.129,0.017l0.643,0.36l0.96,0.39l1.545,0.325l0.304-0.035l2.556-0.849l0.38-0.07l1.147,0.029l2.181,0.925l0.567,0.319
		l5.382,1.251l-0.808,0.556l-0.865,0.369l-0.304,0.257l-0.762,0.972l-0.181,0.319l-0.082,0.243l0.018,0.134l0.099,0.402l0.006,0.143
		l-0.053,0.281l-0.719,1.987l-0.082,0.406l-0.012,0.146l0.006,0.147l0.064,0.29l0.018,0.172l-0.012,0.266l-0.058,0.156l-0.07,0.111
		l-0.637,0.55l-0.043,0.161l0.023,0.129l0.117,0.223l0.094,0.24l0.055,0.096l0.099,0.058l0.263,0.059l0.584,0.251l0.199,0.134
		l0.129,0.038l0.284,0.033l0.121,0.053l0.097,0.073l0.07,0.222l0.031,0.327l-0.058,0.752l-0.101,0.313l-0.123,0.172L138.612,375
		l-0.419-0.07l-0.362,0.193l-0.645,1.021L137.183,376.149z"/>
	<path class="st0" d="M180.582,354.332l0.445,0.2l0.58,0.117l0.663,0.032l0.202,0.111l0.564,0.516l0.405,0.147l0.365-0.057
		l0.899-0.436l0.583,0.215l0.061,0.27l-0.098,0.321l0.111,0.355l1.307,1.018l0.46,0.58l0.969,2.137l-0.325,0.874l-0.028,0.729
		l0.276,0.7l2.779,3.514l0.328,0.304l0.828,0.608l0.261,0.249l0.166,0.396l0.009,0.752l0.083,0.422l0.249,0.414l0.662,0.82
		l0.138,0.45l-0.083,0.351l-0.368,0.744l-0.086,0.448l0.264,0.767l1.767,2.184l0.963,2.365l0.693,0.941l0.439,0.944l0.248,0.408
		l0.791,0.908l0.239,0.405l0.304,0.833l0.055,0.732l-0.101,1.639l0.175,0.778l0.42,0.815l0.518,0.433l0.451-0.362h0.239l1.049,1.823
		l0.337,1.729l0.702,0.98l0.193,0.557l0.055,1.275l0.221,0.525l0.448,0.522l0.301,0.482l-0.202,0.393l0.252,0.509l0.27,1.571
		l0.767,2.062l0.365,1.731l0.037,0.945l-0.258,0.414l-0.313,0.342l0.107,1.652l-0.19,0.577h-1.423l-0.187,0.126l-0.396,0.546
		l-0.184,0.126l-1.702-0.077l-0.739-0.153l-1.525-0.611l-0.294-0.253l-0.037-0.385l0.028-0.719l-0.202-0.542l-0.451-0.399
		l-0.518-0.35l-0.374-0.374l-0.209-1.384l1.012-0.661l1.393-0.552l0.92-1.051l-0.706-0.163l-0.669,0.175l-0.629,0.371l-1.27,0.948
		l-0.279,0.143l-0.135-0.256l-0.221-0.683l-1.196-2.476l-0.893-1.339l-0.85-0.583l-0.218,0.454l0.383,1.025l1.429,2.258l0.012,0.523
		l-0.196,1.054l0.086,0.492l0.163,0.542l0.092,0.574l-0.101,0.589l-1.331,1.086l-1.807-0.448l-3.273-1.691l-0.957,0.077
		l-1.515,0.786l-0.791,0.19l-1.524-0.13l-0.568,0.055l-0.61,0.333l-1.936,2.427l-1.129,0.904l-1.334-0.241l-0.074-0.172l-0.273-0.39
		l-0.288-0.276l-0.138,0.184l0.04,0.423l0.181,0.561l0.037,0.31l-0.095,0.42l-0.678,0.997l-0.534,1.312l-0.463-0.735l-1.322-1.132
		l-0.534-0.733l-0.322-0.75l-1.221-4.092l-0.699-1.454l-1.055-1.206l-1.595-1.016l-4.484-1.7l-6.368-3.963l-1.537-0.732
		l-0.837-0.235l-0.865-0.084l-0.626-0.157l-0.429-0.39l-0.62-0.999l-0.727-0.858l-0.899-0.779l-1.055-0.674l-1.175-0.545
		l-0.604,0.223l-1.871,0.285l-0.638-0.017l-0.847-0.466l-0.497-0.74l-0.718-1.604l-0.623-0.729l-3.083-2.471l-0.423-0.465
		l-0.27-0.479l0.325-0.066l0.046-0.123l-0.077-0.157l-0.037-0.17l-0.475-0.474l-0.672-0.497l-1.426-0.832l-0.005-0.002l0.003-0.005
		l0.645-1.021l0.362-0.193l0.419,0.07l0.142-0.009l0.123-0.172l0.101-0.313l0.058-0.752l-0.031-0.327l-0.07-0.222l-0.097-0.073
		l-0.121-0.053l-0.284-0.033l-0.129-0.038l-0.199-0.134l-0.584-0.251l-0.263-0.059l-0.099-0.058l-0.055-0.096l-0.094-0.24
		l-0.117-0.223l-0.023-0.129l0.043-0.161l0.637-0.55l0.07-0.111l0.058-0.156l0.012-0.266l-0.018-0.172l-0.064-0.29l-0.006-0.147
		l0.012-0.146l0.082-0.406l0.719-1.987l0.053-0.281l-0.006-0.143l-0.099-0.402l-0.018-0.134l0.082-0.243l0.181-0.319l0.762-0.972
		l0.304-0.257l0.865-0.369l0.808-0.556l0.105-0.972l0.123-0.346l0.462-0.544l0.094-0.184l0.035-0.203l-0.012-0.132l-0.105-0.331
		l-0.088-0.447l0.035-0.177l0.208-0.468l0.043-0.19l-0.064-0.295l-0.07-0.171l-0.047-0.199l-0.023-0.196l0.064-0.415l0.088-0.337
		l0.228-0.526l0.123-0.231l0.117-0.167l0.251-0.258l0.041-0.123v-0.152l-0.117-0.249l-0.175-0.29l-0.012-0.219l0.006-0.181
		l0.333-1.025l2.123-5.577l0.201-1.139l1.636,0.55l1.975,0.797l0.53,0.325l5.356,6.435l1.34,1.092l5.941,2.439l0.199,0.047
		l0.14-0.018l5.633-2.093l1.615-0.334l0.508,0.01l0.467,0.237l0.487,0.339l2.117,0.817l0.187,0.152l0.321,0.345l0.199,0.29
		l0.094,0.086l5.38,3.193l0.323,0.123l0.144-0.041l-0.045-0.155l-0.018-0.15v-0.079l0.041-0.091l0.058-0.099l0.403-0.538
		l0.041-0.118l0.035-0.14l0.012-0.272l-0.012-0.161l-0.047-0.234l-0.082-0.208l-0.117-0.197l-0.181-0.225l-0.125-0.067l-0.115-0.044
		l-0.329-0.085l-0.109-0.061l-0.094-0.07l-0.055-0.108l-0.016-0.059l0.004-0.076l0.02-0.088l0.082-0.232l0.074-0.146l0.247-0.281
		l0.035-0.055l0.023-0.085l-0.012-0.073l-0.181-0.472l-0.02-0.164l0.031-0.091l0.088-0.099l0.146-0.12l0.047-0.05l0.097-0.178
		l0.049-0.115l0.064-0.237l0.018-0.129l-0.018-0.091l-0.064-0.146l-0.082-0.14l-0.099-0.126l-0.088-0.088l-0.088-0.067l-0.316-0.165
		l-0.058-0.053l-0.09-0.105l0.008-0.161l0.14-0.205l0.842-0.408l0.064-0.072l0.345-0.516L180.582,354.332z M202.532,350.019
		l0.092,1.875l-0.092,0.445l-0.448,0.341l-0.705,0.227l-0.752,0.049l-0.552-0.209l-0.718-0.768l-0.294-0.459l-0.018-0.33
		l0.021-0.209l-0.184-0.64l0.043-0.322l0.175-0.207l0.475-0.246l0.242-0.181l0.365-0.583v-0.559l-0.153-0.568l-0.092-0.617
		l0.083-0.396l0.221-0.387l0.331-0.237l0.405,0.049l0.181,0.169l0.058,0.212l0.046,0.458l0.101,0.275l0.479,0.732l0.236,0.491
		L202.532,350.019z"/>
	<path class="st0" d="M173.138,297.779l-0.071,0.042l-0.307,0.114l-0.307,0.215l-0.779,1.033l-0.331,0.587l-0.043,0.667l0.258,1.182
		l1.399,3.487l-0.138,0.945l-0.856-0.526l-0.638,1.093l-0.402,1.688l-0.138,1.241l0.037,1.397l-0.11,0.682l-0.656,0.017
		l-0.374,0.483l-0.313,0.653l-0.153,0.518l0.034,0.75l0.202,0.633l1.454,3.184l0.138,0.473l0.653,0.933l1.288,1.217l0.883,1.272
		l-0.534,1.102l1.288-0.258l-1.84,3.904l-0.199,1.556l0.62,4.667l0.261,0.746l0.175,0.756l-0.81,9.133l0.248,1.499l1.224,2.683
		l1.755,2.34l4.457,4.411l0.071,0.031l-0.12,0.267l-0.345,0.516l-0.064,0.072l-0.842,0.408l-0.14,0.205l-0.008,0.161l0.09,0.105
		l0.058,0.053l0.316,0.165l0.088,0.067l0.088,0.088l0.099,0.126l0.082,0.14l0.064,0.146l0.018,0.091l-0.018,0.129l-0.064,0.237
		l-0.049,0.115l-0.097,0.178l-0.047,0.05l-0.146,0.12l-0.088,0.099l-0.031,0.091l0.02,0.164l0.181,0.472l0.012,0.073l-0.023,0.085
		l-0.035,0.055l-0.247,0.281l-0.074,0.146l-0.082,0.232l-0.02,0.088l-0.004,0.076l0.016,0.059l0.055,0.108l0.094,0.07l0.109,0.061
		l0.329,0.085l0.115,0.044l0.125,0.067l0.181,0.225l0.117,0.197l0.082,0.208l0.047,0.234l0.012,0.161l-0.012,0.272l-0.035,0.14
		l-0.041,0.118l-0.403,0.538l-0.058,0.099l-0.041,0.091v0.079l0.018,0.15l0.045,0.155l-0.144,0.041l-0.323-0.123l-5.38-3.193
		l-0.094-0.086l-0.199-0.29l-0.321-0.345l-0.187-0.152l-2.117-0.817l-0.487-0.339l-0.467-0.237l-0.508-0.01l-1.615,0.334
		l-5.633,2.093l-0.14,0.018l-0.199-0.047l-5.941-2.439l-1.34-1.092l-5.356-6.435l-0.53-0.325l-1.975-0.797l-1.636-0.55l-0.393-1.775
		l-0.257-0.395l-0.094,0.041l-0.093,0.067l-0.082,0.079l-0.099,0.056l-0.131,0.015l-0.109-0.032l-0.117-0.05l-7.604-5.186
		l-1.122-1.443l-0.058-0.106l-1.498-1.622l-0.251-0.176l-2.883-0.457l-0.288-0.073l-4.696-1.525l-1.525-0.741l-0.347-0.094
		l-0.222-0.006l-0.07,0.096l-0.082,0.085l-0.105,0.061l-0.421,0.067l-0.129,0.044l-0.105,0.064l-0.288,0.215l-0.351,0.149
		l-0.351,0.094l-0.183-0.009l-0.121-0.067l-0.047-0.12l-0.029-0.14l-0.012-0.452l-0.023-0.135l-0.041-0.123l-0.055-0.117
		l-0.132-0.419l-0.093-0.167l-0.193-0.208l-0.152-0.085l-0.152-0.032l-0.505,0.053l-0.701-0.032l-0.21-0.05l-0.129-0.05
		l-0.134-0.111l-0.076-0.076l-0.187-0.156l-0.218-0.12l-0.097-0.064l-0.07-0.096l-0.043-0.126l-0.012-0.152l-0.14-0.231
		l-0.263-0.263l-0.707-0.472l-0.333-0.161l-0.228-0.044l-0.078,0.091l-0.051,0.126l-0.023,0.132l-0.041,0.12l-0.076,0.094
		l-0.113,0.076l-0.093,0.053l-0.191,0.171l-0.989-0.114l-0.216-0.062l-1.393-0.694l-0.38-0.097l-0.117-0.044l-0.134-0.067
		l-2.462-3.175l0.427-1.034l0.321-0.583l0.029-0.167l0.012-0.199l-0.275-1.221l-0.047-0.123l-0.099-0.226l-0.251-0.43l-0.059-0.12
		l-0.041-0.129l-0.035-0.138l-0.012-0.139l0.053-0.257l0.123-0.342l0.654-1.23l0.099-0.07l0.111-0.061l0.251-0.08l0.105-0.061
		l0.09-0.083l0.07-0.1l0.062-0.179l0.257-1.154l-0.023-0.345l-0.351-0.545l-0.555-0.767l-0.154-0.387l-0.027-0.135l-0.047-0.123
		l-0.066-0.1l-0.156-0.184l-0.064-0.1l-0.152-0.352l-0.222-0.199l-1.288-0.742l-0.742-0.287l-0.152-0.023l-0.298-0.017l-0.14,0.012
		l-0.199-0.056l-0.627-0.354l-0.234-0.1l-0.485-0.436l-1.071-1.68l-0.368-0.574l-0.315-0.152l-0.146-0.018l-0.134-0.035
		l-0.088-0.197l-0.035-0.331l0.181-1.576l-0.008-0.426l-0.045-0.29l-0.134-0.313l-0.304-0.346l-0.136-0.203l-0.214-0.63l-0.23-2.77
		l-0.07-0.346l-0.397-0.42l-0.012-0.029l-0.035-0.126l0.117-0.662l0.795-2.279l-0.935-1.278l-0.345-0.334l-0.146-0.067l-0.292-0.196
		l-0.117-0.026l-0.113,0.023l-0.308,0.164l-0.117,0.003l-0.142-0.237l-0.158-0.446l-0.205-0.977l-0.029-0.431l0.023-0.272
		l0.14-0.191l0.023-0.103l-0.047-0.123l-0.187-0.103l-0.356-0.111l-0.105-0.044l-0.532-0.129l-0.37-0.164l-0.105-0.064l-0.088-0.129
		l-0.035-0.2l0.053-0.439l0.055-0.229l0.07-0.179l0.016-0.145l-0.059-0.167l-0.175-0.22l-0.14-0.117l-0.204-0.438l-0.06-1.565
		l-0.138-0.39l-0.129-0.111l-0.281-0.177l-0.134-0.114l-0.047-0.182l0.035-0.132l0.064-0.117l0.146-0.196l0.105-0.253l0.035-0.132
		l0.111-0.22l0.023-0.123l-0.006-0.129l-0.041-0.129l-0.093-0.108l-0.152-0.082l-0.444-0.082l-1.743-0.537l-0.257,0.082
		l-0.158-0.044l-0.17-0.144l-0.417-0.619l-0.479-0.334l0.345-0.545l0.228-0.23l0.101-0.073l0.093-0.141l0.082-0.19l0.117-0.36
		l0.304-0.666l0.123-0.108l0.134-0.059l0.099-0.067l0.047-0.141l-0.017-0.209l-0.158-0.369l-0.374-0.355l-0.072-0.112l-0.039-0.114
		l-0.195-0.747l-0.035-0.293l0.066-0.613L95.352,281l1.507,0.393l0.44,0.17l0.555,0.473l0.111,0.126l0.485,0.361l0.438,0.085
		l0.234,0.006l0.119-0.091l0.017-0.141v-0.158l0.018-0.15l0.059-0.126l0.117-0.091l0.473-0.123l0.123-0.062l0.222-0.079l0.45-0.082
		l0.491,0.067l0.259,0.067l0.146,0.097l0.076,0.088l0.123,0.103l0.175,0.105l0.553,0.2l0.16,0.082l0.265,0.278l0.432,0.375
		l0.549-0.097l0.304,0.135l0.158,0.147l0.232,0.006l0.845-0.238l0.269-0.105l0.187-0.103l0.234-0.279l0.111-0.226l0.199-0.189
		l0.321-0.22l1.136-0.616l0.245-0.171l0.298-0.369l0.24-0.108l0.855-0.182l0.245-0.105l0.152-0.114l0.064-0.103l0.058-0.114
		l0.134-0.531l0.047-0.311l-0.029-0.778l0.134-0.886l0.006-0.153l-0.053-0.957l0.035-0.234l0.129-0.352l0.111-0.177l0.164-0.114
		l0.193-0.059l0.321-0.056l0.212,0.009l0.152,0.038l0.105,0.07l0.07,0.1l0.053,0.112l0.035,0.132l0.029,0.308l-0.006,0.334
		l0.018,0.152l0.031,0.141l0.068,0.098l0.111,0.056l0.14,0.026l0.292,0.023l0.117,0.044l0.105,0.07l0.088,0.082l0.058,0.117
		l0.045,0.126l0.014,0.141v0.144l0.018,0.144l0.064,0.118l0.117,0.076l0.201,0.029l0.144,0.05l0.113,0.068l0.179,0.146l0.643,0.372
		l0.095,0.079l0.076,0.097l0.058,0.115l0.035,0.126l0.012,0.15v0.152l-0.064,0.279l-0.018,0.126l0.018,0.135l0.175,0.488
		l0.058,0.109l0.091,0.12l0.142,0.103l0.251,0.091l0.136-0.032l0.074-0.097l0.012-0.448l0.023-0.144l0.047-0.124l0.117-0.229
		l0.212-0.305l0.403-0.375l0.099-0.129l0.099-0.23l0.386-1.684l0.023-0.305l-0.006-0.312l-0.025-0.138l-0.035-0.132l0.025-0.182
		l0.076-0.206l0.275-0.328l0.152-0.076l0.123,0.018l0.125,0.211l0.109,0.092l0.136,0.061l0.251-0.002l0.146-0.107l0.187-0.202
		l0.111-0.07l0.088-0.015l0.082,0.059l0.082,0.082l0.362,0.502l0.093,0.062l0.146,0.006l0.134-0.012l0.125,0.021l0.105,0.059
		l0.187,0.158l0.234,0.167l0.392-0.021l2.07-0.889l0.31-0.047l0.082,0.073l0.07,0.1l0.24,0.584l0.018,0.129l0.006,0.293l0.018,0.141
		l0.047,0.112l0.08,0.094l1.363,1.036l0.236,0.27l0.064,0.1l0.047,0.123l0.029,0.138l0.006,0.158l0.02,0.135l0.045,0.124
		l0.094,0.088l0.111,0.053l0.129,0.041l0.111,0.053l0.088,0.082l0.078,0.097l0.097,0.226l0.07,0.111l0.152,0.091l0.136,0.063
		l0.771,0.105l0.401-0.496l0.125-0.079l0.234-0.12l0.82-0.232l0.281-0.026l0.208,0.009l0.744,0.452l0.206,0.082l0.273,0.082
		l0.61,0.1l0.275-0.012l0.181-0.062l0.228-0.484l0.064-0.1l0.345-0.335l0.444-0.563l0.054-0.117l0.023-0.126l-0.023-0.126
		l-0.058-0.098l-0.035-0.129l0.039-0.152l0.341-0.314l0.318-0.126l0.506-0.1l0.263-0.003l0.199,0.023l0.251,0.105l0.171,0.038
		l0.203,0.023l0.341-0.018l0.21,0.015l0.158,0.044l0.086,0.079l0.201,0.308l0.162,0.176l0.662,0.37l0.364,0.296l0.146,0.082
		l0.187,0.064l0.321,0.07l0.193-0.006l0.156-0.056l0.271-0.17l0.222-0.176l0.084-0.088l0.187-0.152l0.086-0.082l0.07-0.091
		l0.152-0.262l0.148-0.176l0.146-0.038l0.123,0.018l0.099,0.076l0.094,0.085l0.07,0.088l0.123,0.079l0.164,0.056l0.567,0.051
		l0.497,0.1l0.148-0.035l0.099-0.088l0.047-0.121l0.029-0.138l-0.018-0.305l-0.105-0.57l-0.047-0.117l-0.134-0.211l-0.035-0.114
		l-0.008-0.132l0.035-0.12l0.055-0.117l0.123-0.23l0.041-0.129l0.018-0.132l-0.006-0.147l0.012-0.164l0.053-0.167l0.169-0.209
		l0.152-0.072l0.146-0.004l0.123,0.053l0.38,0.309l0.321,0.103l0.744,0.029l0.806,1.517l0.316,0.414l0.592,0.337l0.69,0.51
		l0.38,0.215l0.695,0.223l0.242,0.047l0.234,0.07l0.689,0.091l0.643,0.009l1.06-0.123l0.561,0.188l0.701,0.64l0.347,0.393
		l0.059,0.106l0.109,0.315l0.043,0.249l0.132,0.443l0.008,0.238l-0.058,0.136l-0.101,0.103l-0.094,0.161l-0.039,0.833l-0.043,0.126
		l-0.051,0.123l-0.07,0.097l-0.09,0.076l-0.123,0.053l-0.391,0.123l-0.105,0.067l-0.099,0.114l-0.076,0.17l-0.082,0.306l0.018,0.317
		l0.076,0.372l0.193,0.672l0.128,0.299l0.123,0.191l0.31,0.196l0.283,0.29l0.226,0.343l0.16,0.153l0.152,0.088l0.471,0.021
		l0.131,0.023l0.123,0.035l0.281-0.003l0.146-0.018l0.458,0.018l0.14,0.023l0.117,0.059l0.117,0.085l0.216,0.22l0.111,0.059
		l0.111-0.015l0.093-0.059l0.059-0.114l0.058-0.281l0.053-0.121l0.088-0.082l0.105-0.059l0.094-0.079l0.146-0.003l0.187,0.085
		l1.287,1.212l0.094,0.15l0.041,0.138l0.041,0.404l0.064,0.303l0.076,0.129l0.257,0.026l0.029,0.495l-0.21,0.517l-0.288,0.551
		l-0.08,0.293l-0.012,0.212l0.204,0.598l-0.041,0.141l-0.082,0.1l-0.263,0.038l-0.128-0.009l-0.316-0.079l-0.14-0.018l-0.152,0.003
		l-0.187,0.067l-0.224,0.126l-0.362,0.285l-0.154,0.179l-0.09,0.205l-0.183,0.581l-0.169,0.246l-0.327,0.314l-0.154,0.237
		l-0.082,0.197v0.161l-0.105,0.656l-0.374,1.47l0.058,0.668l-0.006,0.285l-0.076,0.527l-0.064,0.261l-0.076,0.191l-0.473,0.609
		l-0.041,0.173v0.15l0.38,0.627l0.146,0.193l0.088,0.091l0.092,0.076l0.109,0.056l0.144,0.023l0.37-0.018l2.045-0.879l0.581-0.082
		l0.175,0.161l0.099,0.067l0.117,0.064l0.497,0.176l1.036,0.231l0.245,0.097l0.14,0.114l0.158,0.159l0.263,0.188l1.305,0.477
		l0.123,0.062l0.105,0.067l0.082,0.091l0.058,0.115l0.041,0.12l0.064,0.103l0.088,0.085l0.097,0.07l0.084,0.085l0.146,0.229
		l0.129,0.123l0.216,0.129l0.212,0.105l0.882,0.61l0.24,0.076h0.175l0.257-0.161l0.216-0.061l0.105,0.059l0.064,0.114l0.035,0.293
		l0.055,0.15l0.093,0.144l0.14,0.167l0.14,0.053l0.123-0.021l0.14-0.079l0.152-0.073l0.298-0.032l0.128,0.067l0.082,0.126
		l0.047,0.53l0.023,0.082l0.088,0.209l0.134,0.22l0.286,0.372l0.61,0.587l0.146,0.205l0.047,0.114l0.021,0.129l-0.004,0.138
		l-0.059,0.275l0.012,0.147l0.051,0.161l0.428,0.431l0.123,0.22l0.345,0.818l0.099,0.149l0.14,0.165l0.267,0.255l0.148,0.038
		l0.094-0.047l0.023-0.135l-0.121-0.841l0.027-0.126l0.054-0.1l0.082-0.085l0.094-0.07l0.094-0.086l0.167-0.22l0.171-0.284
		l0.097-0.255l0.094-0.399l0.008-0.152l-0.012-0.152l-0.023-0.141l-0.327-1.014l-0.3-0.587l-0.004-0.023l-0.019-0.044l-0.059-0.17
		l-0.023-0.132v-0.152l0.047-0.293l0.07-0.273l0.02-0.149l0.012-0.152l-0.031-0.305l-0.082-0.247l-0.062-0.097l-0.082-0.085
		l-0.101-0.07l-0.222-0.129l-0.099-0.076l-0.082-0.094l-0.053-0.102l-0.041-0.129l-0.053-0.288l-0.008-0.149l0.014-0.155
		l0.152-0.868l0.053-0.12l0.076-0.094l0.177-0.164l0.074-0.097l0.125-0.211l0.051-0.123l0.047-0.144l0.047-0.288l0.02-0.308
		l-0.113-0.569l-0.012-0.149l-0.129-0.724l0.008-0.159l0.07-0.021l0.331,0.126l0.113,0.068l0.088,0.079l0.076,0.088l0.088,0.082
		l0.105,0.059l0.134,0.032l2.754,0.108l0.514,0.108l0.257,0.103L173.138,297.779z"/>
	<path class="st0" d="M139.185,233.992l0.319,0.254l1.991,1.238l0.868,0.689l0.742,0.919l0.491,1.227l0.383,0.589l1.028,0.459
		l6.754,5.357l1.601,0.795l1.558,0.317l0.607,0.407l1.96,1.735l3.494,3.944l3.85,6.064l1.316,3.216l3.742,6.273l2.212,4.05
		l0.224,0.727l0.144,0.265l0.663,0.777l0.202,0.38l0.021,0.434l-0.279,1.116l0.055,0.86l0.371,1.579l0.638,5.712l-0.049,0.868
		l-0.371,0.711l-0.258,0.749l0.463,1.691l-0.077,0.552l1.224,3.498l0.086,1.149l-0.095,0.412l-0.512,1.326l-0.301,0.454
		l-0.245,0.232l-0.534,0.64l-0.138,0.291l0.015,0.328l0.242,0.984l-0.236,0.391l-0.218,0.131l-0.152-0.098l-0.257-0.103
		l-0.514-0.108l-2.754-0.108l-0.134-0.032l-0.105-0.059l-0.088-0.082l-0.076-0.088l-0.088-0.079l-0.113-0.068l-0.331-0.126
		l-0.07,0.021l-0.008,0.159l0.129,0.724l0.012,0.149l0.113,0.569l-0.02,0.308l-0.047,0.288l-0.047,0.144l-0.051,0.123l-0.125,0.211
		l-0.074,0.097l-0.177,0.164l-0.076,0.094l-0.053,0.12l-0.152,0.868l-0.014,0.155l0.008,0.149l0.053,0.288l0.041,0.129l0.053,0.102
		l0.082,0.094l0.099,0.076l0.222,0.129l0.101,0.07l0.082,0.085l0.062,0.097l0.082,0.247l0.031,0.305l-0.012,0.152l-0.02,0.149
		l-0.07,0.273l-0.047,0.293v0.152l0.023,0.132l0.059,0.17l0.019,0.044l0.004,0.023l0.3,0.587l0.327,1.014l0.023,0.141l0.012,0.152
		l-0.008,0.152l-0.094,0.399l-0.097,0.255l-0.171,0.284l-0.167,0.22l-0.094,0.086l-0.094,0.07l-0.082,0.085l-0.054,0.1l-0.027,0.126
		l0.121,0.841l-0.023,0.135l-0.094,0.047l-0.148-0.038l-0.267-0.255l-0.14-0.165l-0.099-0.149l-0.345-0.818l-0.123-0.22
		l-0.428-0.431l-0.051-0.161l-0.012-0.147l0.059-0.275l0.004-0.138l-0.021-0.129l-0.047-0.114l-0.146-0.205l-0.61-0.587
		l-0.286-0.372l-0.134-0.22l-0.088-0.209l-0.023-0.082l-0.047-0.53l-0.082-0.126l-0.128-0.067l-0.298,0.032l-0.152,0.073
		l-0.14,0.079l-0.123,0.021l-0.14-0.053l-0.14-0.167l-0.093-0.144l-0.055-0.15l-0.035-0.293l-0.064-0.114l-0.105-0.059l-0.216,0.061
		l-0.257,0.161h-0.175l-0.24-0.076l-0.882-0.61l-0.212-0.105l-0.216-0.129l-0.129-0.123l-0.146-0.229l-0.084-0.085l-0.097-0.07
		l-0.088-0.085l-0.064-0.103l-0.041-0.12l-0.058-0.115l-0.082-0.091l-0.105-0.067l-0.123-0.062l-1.305-0.477l-0.263-0.188
		l-0.158-0.159l-0.14-0.114l-0.245-0.097l-1.036-0.231l-0.497-0.176l-0.117-0.064l-0.099-0.067l-0.175-0.161l-0.581,0.082
		l-2.045,0.879l-0.37,0.018l-0.144-0.023l-0.109-0.056l-0.092-0.076l-0.088-0.091l-0.146-0.193l-0.38-0.627v-0.15l0.041-0.173
		l0.473-0.609l0.076-0.191l0.064-0.261l0.076-0.527l0.006-0.285l-0.058-0.668l0.374-1.47l0.105-0.656v-0.161l0.082-0.197
		l0.154-0.237l0.327-0.314l0.169-0.246l0.183-0.581l0.09-0.205l0.154-0.179l0.362-0.285l0.224-0.126l0.187-0.067l0.152-0.003
		l0.14,0.018l0.316,0.079l0.128,0.009l0.263-0.038l0.082-0.1l0.041-0.141l-0.204-0.598l0.012-0.212l0.08-0.293l0.288-0.551
		l0.21-0.517l-0.029-0.495l-0.257-0.026l-0.076-0.129l-0.064-0.303l-0.041-0.404l-0.041-0.138l-0.094-0.15l-1.287-1.212
		l-0.187-0.085l-0.146,0.003l-0.094,0.079l-0.105,0.059l-0.088,0.082l-0.053,0.121l-0.058,0.281l-0.059,0.114l-0.093,0.059
		l-0.111,0.015l-0.111-0.059l-0.216-0.22l-0.117-0.085l-0.117-0.059l-0.14-0.023l-0.458-0.018l-0.146,0.018l-0.281,0.003
		l-0.123-0.035l-0.131-0.023l-0.471-0.021l-0.152-0.088l-0.16-0.153l-0.226-0.343l-0.283-0.29l-0.31-0.196l-0.123-0.191
		l-0.128-0.299l-0.193-0.672l-0.076-0.372l-0.018-0.317l0.082-0.306l0.076-0.17l0.099-0.114l0.105-0.067l0.391-0.123l0.123-0.053
		l0.09-0.076l0.07-0.097l0.051-0.123l0.043-0.126l0.039-0.833l0.094-0.161l0.101-0.103l0.058-0.136l-0.008-0.238l-0.132-0.443
		l-0.043-0.249l-0.109-0.315l-0.059-0.106l-0.347-0.393l-0.701-0.64l-0.561-0.188l-1.06,0.123l-0.643-0.009l-0.689-0.091
		l-0.234-0.07l-0.242-0.047l-0.695-0.223l-0.38-0.215l-0.69-0.51l-0.592-0.337l-0.316-0.414l-0.806-1.517l0.214-0.555l-0.039-0.284
		l-0.339-0.816l-0.105-0.155l-0.129-0.129l-0.195-0.287l-0.066-0.303l-0.051-0.531l-0.088-0.214l-0.123-0.123l-0.275-0.07
		l-0.134-0.053l-1.878-1.333l-0.935-0.422l-0.136-0.032l-0.133-0.012l-0.117,0.032l-0.09,0.076l-0.07,0.1l-0.128,0.068l-0.181,0.009
		l-0.409-0.176l-0.158-0.158l-0.07-0.179l0.058-0.734l0.062-0.302l-0.092-0.611l-0.351-1.063l-0.064-0.302l-0.017-0.179v-0.029
		l-0.006-0.021v-0.029l0.006-0.074l0.041-0.096l0.076-0.089l0.093-0.073l0.111-0.062l0.117-0.047l0.076-0.129l0.041-0.197
		l-0.45-1.835l-0.006-0.208l0.07-0.1l0.105-0.065l0.275-0.067l0.105-0.053l0.064-0.109l0.018-0.127l0.029-0.132l0.053-0.106
		l0.173-0.217l0.066-0.17l-0.076-0.079l-0.298-0.22l-0.362-0.409l-0.134-0.108l-0.105-0.059l-0.123-0.053l-0.156-0.097l-0.183-0.135
		l-0.526-0.602l-0.101-0.07l-0.292-0.144l-0.175-0.155l-0.134-0.088l-0.154-0.035l-0.14-0.006l-0.15-0.023l-0.117-0.053
		l-0.187-0.154l-0.105-0.059l-0.505-0.12l-0.263-0.129l-0.082-0.15l-0.023-0.153l0.234-0.632l0.064-0.264l0.012-0.15l-0.004-0.15
		l-0.101-0.573l0.078-2.191l0.109-0.864l0.054-0.158l0.438-0.934l0.181-0.951l-0.07-0.347l-0.152-0.185l-0.838-0.688l-0.608-0.754
		l-0.07-0.217l0.029-0.133l0.129-0.044l0.07-0.352l-0.018-0.617l-0.275-2.233l0.035-0.379l0.304-0.2l0.07-0.103l0.047-0.127
		l-0.058-2.041l0.105-0.632l-0.018-0.214l-0.105-0.377l-0.101-0.25l-0.512-2.095l0.187-0.487l1.326-1.406l2.891-2.704l1.379-1.738
		L139.185,233.992z"/>
	<path class="st0" d="M618.119,252.524l0.423,1.896l-0.018,0.915l-0.663,0.701l-0.368-0.017l-0.742-0.448l-0.307,0.052l-0.748,0.627
		l-0.945,0.562l0.064-0.561l1.064-2.945l0.307-0.373l1.086-1l0.589-0.24L618.119,252.524z"/>
	<path class="st0" d="M108.067,334.146l0.269-0.064l0.187-0.143l0.362-0.159l0.169-0.015l0.134,0.059l0.09,0.129l0.132,0.147
		l0.152,0.404l0.164,0.328l0.066,0.231l0.035,0.223l-0.035,0.161l-0.058,0.117l-0.257,0.237l-0.082,0.158l-0.055,0.534l-0.058,0.155
		l-0.14,0.14l-0.093,0.117l-0.023,0.254l0.053,0.431l0.181,0.721l0.16,1.435l-0.012,0.211l-0.055,0.158l-0.117,0.094l-0.136,0.038
		l-0.14,0.003l-0.103,0.051l-0.088,0.132l-0.064,0.205l-0.088,0.167l-0.117,0.108l-0.093-0.044l-0.07-0.155l-0.059-0.108
		l-0.078-0.073l-0.115-0.035l-0.251-0.029l-1.025,0.135l-0.245,0.003l-0.234-0.026l-0.195-0.07l-0.115-0.118l-0.059-0.158
		l-0.053-0.202l-0.101-0.269l-0.016-0.167l0.035-0.143l0.07-0.126l0.216-0.279l0.035-0.099l0.012-0.123l-0.017-0.138l-0.082-0.225
		l-0.064-0.079l-0.053-0.053l-0.053-0.035l-0.029-0.05l-0.023-0.086l-0.012-0.199l-0.041-0.173l-0.076-0.161l-0.117-0.126
		l-0.479-0.288l-0.117-0.094l-0.107-0.117l-0.076-0.102l-0.152-0.275l-0.047-0.135l-0.117-1.312l0.023-0.123l0.522-0.923l0.121-0.27
		l0.047-0.064l0.07-0.059l0.481-0.237l0.247-0.205l0.074-0.085l0.051-0.032l0.125-0.018l0.175,0.053l0.438,0.492l0.89,0.408
		L108.067,334.146z"/>
	<path class="st0" d="M106.75,346.673l-0.164-0.047l-0.187-0.135l-0.152-0.293l-0.047-0.269l0.134-0.349l0.105-0.105l0.082-0.173
		l0.076-0.123l0.018-0.19l-0.142-0.583l0.031-0.246l0.117-0.138l-0.019-0.17l-0.144-0.214l-0.082-0.217l0.088-0.216l0.251-0.117
		l0.557-0.108l0.214-0.114l0.16-0.044l0.292-0.187l0.111,0.667l0.292,0.285l0.281,0.366l-0.029,0.658l-0.736,0.943l-0.125,0.311
		l-0.175,0.266l-0.538,0.468L106.75,346.673z"/>
</g>
<g id="Copyright">
	<text transform="matrix(1 0 0 1 681.6426 577.5916)" class="st1 st2"> Vemaps.com</text>
</g>
</svg>
